<svg xmlns="http://www.w3.org/2000/svg" width="1927" height="1204" viewBox="0 0 1927 1204"><defs><clipPath id="cga2a"><path d="M1558 1101V973h141v128z"/></clipPath></defs><g><g opacity=".09"><g opacity=".09"><path fill="none" stroke="#fff" stroke-miterlimit="50" stroke-width="54" d="M1783.08 1189.626c-19.189-33.235-7.802-75.731 25.433-94.92 33.234-19.187 75.732-7.801 94.92 25.434"/></g></g><g opacity=".65"><g opacity=".65"/><g clip-path="url(#cga2a)" opacity=".65"><g opacity=".65"><path fill="#70b4ff" d="M1558 976a3 3 0 1 1 6 0 3 3 0 0 1-6 0z"/></g></g><g clip-path="url(#cga2a)" opacity=".65"><g opacity=".65"><path fill="#70b4ff" d="M1571 976a3 3 0 1 1 6 0 3 3 0 0 1-6 0z"/></g></g><g clip-path="url(#cga2a)" opacity=".65"><g opacity=".65"><path fill="#70b4ff" d="M1584 976a3 3 0 1 1 6 0 3 3 0 0 1-6 0z"/></g></g><g clip-path="url(#cga2a)" opacity=".65"><g opacity=".65"><path fill="#70b4ff" d="M1597 976a3 3 0 1 1 6 0 3 3 0 0 1-6 0z"/></g></g><g clip-path="url(#cga2a)" opacity=".65"><g opacity=".65"><path fill="#70b4ff" d="M1610 976a3 3 0 1 1 6 0 3 3 0 0 1-6 0z"/></g></g><g clip-path="url(#cga2a)" opacity=".65"><g opacity=".65"><path fill="#70b4ff" d="M1623 976a3 3 0 1 1 6 0 3 3 0 0 1-6 0z"/></g></g><g clip-path="url(#cga2a)" opacity=".65"><g opacity=".65"><path fill="#70b4ff" d="M1636 976a3 3 0 1 1 6 0 3 3 0 0 1-6 0z"/></g></g><g clip-path="url(#cga2a)" opacity=".65"><g opacity=".65"><path fill="#70b4ff" d="M1649 976a3 3 0 1 1 6 0 3 3 0 0 1-6 0z"/></g></g><g clip-path="url(#cga2a)" opacity=".65"><g opacity=".65"><path fill="#70b4ff" d="M1662 976a3 3 0 1 1 6 0 3 3 0 0 1-6 0z"/></g></g><g clip-path="url(#cga2a)" opacity=".65"><g opacity=".65"><path fill="#70b4ff" d="M1675 976a3 3 0 1 1 6 0 3 3 0 0 1-6 0z"/></g></g><g clip-path="url(#cga2a)" opacity=".65"><g opacity=".65"><path fill="#70b4ff" d="M1688 976a3 3 0 1 1 6 0 3 3 0 0 1-6 0z"/></g></g><g clip-path="url(#cga2a)" opacity=".65"><g opacity=".65"><path fill="#70b4ff" d="M1558 989a3 3 0 1 1 6 0 3 3 0 0 1-6 0z"/></g></g><g clip-path="url(#cga2a)" opacity=".65"><g opacity=".65"><path fill="#70b4ff" d="M1571 989a3 3 0 1 1 6 0 3 3 0 0 1-6 0z"/></g></g><g clip-path="url(#cga2a)" opacity=".65"><g opacity=".65"><path fill="#70b4ff" d="M1584 989a3 3 0 1 1 6 0 3 3 0 0 1-6 0z"/></g></g><g clip-path="url(#cga2a)" opacity=".65"><g opacity=".65"><path fill="#70b4ff" d="M1597 989a3 3 0 1 1 6 0 3 3 0 0 1-6 0z"/></g></g><g clip-path="url(#cga2a)" opacity=".65"><g opacity=".65"><path fill="#70b4ff" d="M1610 989a3 3 0 1 1 6 0 3 3 0 0 1-6 0z"/></g></g><g clip-path="url(#cga2a)" opacity=".65"><g opacity=".65"><path fill="#70b4ff" d="M1623 989a3 3 0 1 1 6 0 3 3 0 0 1-6 0z"/></g></g><g clip-path="url(#cga2a)" opacity=".65"><g opacity=".65"><path fill="#70b4ff" d="M1636 989a3 3 0 1 1 6 0 3 3 0 0 1-6 0z"/></g></g><g clip-path="url(#cga2a)" opacity=".65"><g opacity=".65"><path fill="#70b4ff" d="M1649 989a3 3 0 1 1 6 0 3 3 0 0 1-6 0z"/></g></g><g clip-path="url(#cga2a)" opacity=".65"><g opacity=".65"><path fill="#70b4ff" d="M1662 989a3 3 0 1 1 6 0 3 3 0 0 1-6 0z"/></g></g><g clip-path="url(#cga2a)" opacity=".65"><g opacity=".65"><path fill="#70b4ff" d="M1675 989a3 3 0 1 1 6 0 3 3 0 0 1-6 0z"/></g></g><g clip-path="url(#cga2a)" opacity=".65"><g opacity=".65"><path fill="#70b4ff" d="M1688 989a3 3 0 1 1 6 0 3 3 0 0 1-6 0z"/></g></g><g clip-path="url(#cga2a)" opacity=".65"><g opacity=".65"><path fill="#70b4ff" d="M1558 1002a3 3 0 1 1 6 0 3 3 0 0 1-6 0z"/></g></g><g clip-path="url(#cga2a)" opacity=".65"><g opacity=".65"><path fill="#70b4ff" d="M1571 1002a3 3 0 1 1 6 0 3 3 0 0 1-6 0z"/></g></g><g clip-path="url(#cga2a)" opacity=".65"><g opacity=".65"><path fill="#70b4ff" d="M1584 1002a3 3 0 1 1 6 0 3 3 0 0 1-6 0z"/></g></g><g clip-path="url(#cga2a)" opacity=".65"><g opacity=".65"><path fill="#70b4ff" d="M1597 1002a3 3 0 1 1 6 0 3 3 0 0 1-6 0z"/></g></g><g clip-path="url(#cga2a)" opacity=".65"><g opacity=".65"><path fill="#70b4ff" d="M1610 1002a3 3 0 1 1 6 0 3 3 0 0 1-6 0z"/></g></g><g clip-path="url(#cga2a)" opacity=".65"><g opacity=".65"><path fill="#70b4ff" d="M1623 1002a3 3 0 1 1 6 0 3 3 0 0 1-6 0z"/></g></g><g clip-path="url(#cga2a)" opacity=".65"><g opacity=".65"><path fill="#70b4ff" d="M1636 1002a3 3 0 1 1 6 0 3 3 0 0 1-6 0z"/></g></g><g clip-path="url(#cga2a)" opacity=".65"><g opacity=".65"><path fill="#70b4ff" d="M1649 1002a3 3 0 1 1 6 0 3 3 0 0 1-6 0z"/></g></g><g clip-path="url(#cga2a)" opacity=".65"><g opacity=".65"><path fill="#70b4ff" d="M1662 1002a3 3 0 1 1 6 0 3 3 0 0 1-6 0z"/></g></g><g clip-path="url(#cga2a)" opacity=".65"><g opacity=".65"><path fill="#70b4ff" d="M1675 1002a3 3 0 1 1 6 0 3 3 0 0 1-6 0z"/></g></g><g clip-path="url(#cga2a)" opacity=".65"><g opacity=".65"><path fill="#70b4ff" d="M1688 1002a3 3 0 1 1 6 0 3 3 0 0 1-6 0z"/></g></g><g clip-path="url(#cga2a)" opacity=".65"><g opacity=".65"><path fill="#70b4ff" d="M1558 1015a3 3 0 1 1 6 0 3 3 0 0 1-6 0z"/></g></g><g clip-path="url(#cga2a)" opacity=".65"><g opacity=".65"><path fill="#70b4ff" d="M1571 1015a3 3 0 1 1 6 0 3 3 0 0 1-6 0z"/></g></g><g clip-path="url(#cga2a)" opacity=".65"><g opacity=".65"><path fill="#70b4ff" d="M1584 1015a3 3 0 1 1 6 0 3 3 0 0 1-6 0z"/></g></g><g clip-path="url(#cga2a)" opacity=".65"><g opacity=".65"><path fill="#70b4ff" d="M1597 1015a3 3 0 1 1 6 0 3 3 0 0 1-6 0z"/></g></g><g clip-path="url(#cga2a)" opacity=".65"><g opacity=".65"><path fill="#70b4ff" d="M1610 1015a3 3 0 1 1 6 0 3 3 0 0 1-6 0z"/></g></g><g clip-path="url(#cga2a)" opacity=".65"><g opacity=".65"><path fill="#70b4ff" d="M1623 1015a3 3 0 1 1 6 0 3 3 0 0 1-6 0z"/></g></g><g clip-path="url(#cga2a)" opacity=".65"><g opacity=".65"><path fill="#70b4ff" d="M1636 1015a3 3 0 1 1 6 0 3 3 0 0 1-6 0z"/></g></g><g clip-path="url(#cga2a)" opacity=".65"><g opacity=".65"><path fill="#70b4ff" d="M1649 1015a3 3 0 1 1 6 0 3 3 0 0 1-6 0z"/></g></g><g clip-path="url(#cga2a)" opacity=".65"><g opacity=".65"><path fill="#70b4ff" d="M1662 1015a3 3 0 1 1 6 0 3 3 0 0 1-6 0z"/></g></g><g clip-path="url(#cga2a)" opacity=".65"><g opacity=".65"><path fill="#70b4ff" d="M1675 1015a3 3 0 1 1 6 0 3 3 0 0 1-6 0z"/></g></g><g clip-path="url(#cga2a)" opacity=".65"><g opacity=".65"><path fill="#70b4ff" d="M1688 1015a3 3 0 1 1 6 0 3 3 0 0 1-6 0z"/></g></g><g clip-path="url(#cga2a)" opacity=".65"><g opacity=".65"><path fill="#70b4ff" d="M1558 1028a3 3 0 1 1 6 0 3 3 0 0 1-6 0z"/></g></g><g clip-path="url(#cga2a)" opacity=".65"><g opacity=".65"><path fill="#70b4ff" d="M1571 1028a3 3 0 1 1 6 0 3 3 0 0 1-6 0z"/></g></g><g clip-path="url(#cga2a)" opacity=".65"><g opacity=".65"><path fill="#70b4ff" d="M1584 1028a3 3 0 1 1 6 0 3 3 0 0 1-6 0z"/></g></g><g clip-path="url(#cga2a)" opacity=".65"><g opacity=".65"><path fill="#70b4ff" d="M1597 1028a3 3 0 1 1 6 0 3 3 0 0 1-6 0z"/></g></g><g clip-path="url(#cga2a)" opacity=".65"><g opacity=".65"><path fill="#70b4ff" d="M1610 1028a3 3 0 1 1 6 0 3 3 0 0 1-6 0z"/></g></g><g clip-path="url(#cga2a)" opacity=".65"><g opacity=".65"><path fill="#70b4ff" d="M1623 1028a3 3 0 1 1 6 0 3 3 0 0 1-6 0z"/></g></g><g clip-path="url(#cga2a)" opacity=".65"><g opacity=".65"><path fill="#70b4ff" d="M1636 1028a3 3 0 1 1 6 0 3 3 0 0 1-6 0z"/></g></g><g clip-path="url(#cga2a)" opacity=".65"><g opacity=".65"><path fill="#70b4ff" d="M1649 1028a3 3 0 1 1 6 0 3 3 0 0 1-6 0z"/></g></g><g clip-path="url(#cga2a)" opacity=".65"><g opacity=".65"><path fill="#70b4ff" d="M1662 1028a3 3 0 1 1 6 0 3 3 0 0 1-6 0z"/></g></g><g clip-path="url(#cga2a)" opacity=".65"><g opacity=".65"><path fill="#70b4ff" d="M1675 1028a3 3 0 1 1 6 0 3 3 0 0 1-6 0z"/></g></g><g clip-path="url(#cga2a)" opacity=".65"><g opacity=".65"><path fill="#70b4ff" d="M1688 1028a3 3 0 1 1 6 0 3 3 0 0 1-6 0z"/></g></g><g clip-path="url(#cga2a)" opacity=".65"><g opacity=".65"><path fill="#70b4ff" d="M1558 1041a3 3 0 1 1 6 0 3 3 0 0 1-6 0z"/></g></g><g clip-path="url(#cga2a)" opacity=".65"><g opacity=".65"><path fill="#70b4ff" d="M1571 1041a3 3 0 1 1 6 0 3 3 0 0 1-6 0z"/></g></g><g clip-path="url(#cga2a)" opacity=".65"><g opacity=".65"><path fill="#70b4ff" d="M1584 1041a3 3 0 1 1 6 0 3 3 0 0 1-6 0z"/></g></g><g clip-path="url(#cga2a)" opacity=".65"><g opacity=".65"><path fill="#70b4ff" d="M1597 1041a3 3 0 1 1 6 0 3 3 0 0 1-6 0z"/></g></g><g clip-path="url(#cga2a)" opacity=".65"><g opacity=".65"><path fill="#70b4ff" d="M1610 1041a3 3 0 1 1 6 0 3 3 0 0 1-6 0z"/></g></g><g clip-path="url(#cga2a)" opacity=".65"><g opacity=".65"><path fill="#70b4ff" d="M1623 1041a3 3 0 1 1 6 0 3 3 0 0 1-6 0z"/></g></g><g clip-path="url(#cga2a)" opacity=".65"><g opacity=".65"><path fill="#70b4ff" d="M1636 1041a3 3 0 1 1 6 0 3 3 0 0 1-6 0z"/></g></g><g clip-path="url(#cga2a)" opacity=".65"><g opacity=".65"><path fill="#70b4ff" d="M1649 1041a3 3 0 1 1 6 0 3 3 0 0 1-6 0z"/></g></g><g clip-path="url(#cga2a)" opacity=".65"><g opacity=".65"><path fill="#70b4ff" d="M1662 1041a3 3 0 1 1 6 0 3 3 0 0 1-6 0z"/></g></g><g clip-path="url(#cga2a)" opacity=".65"><g opacity=".65"><path fill="#70b4ff" d="M1675 1041a3 3 0 1 1 6 0 3 3 0 0 1-6 0z"/></g></g><g clip-path="url(#cga2a)" opacity=".65"><g opacity=".65"><path fill="#70b4ff" d="M1688 1041a3 3 0 1 1 6 0 3 3 0 0 1-6 0z"/></g></g><g clip-path="url(#cga2a)" opacity=".65"><g opacity=".65"><path fill="#70b4ff" d="M1558 1054a3 3 0 1 1 6 0 3 3 0 0 1-6 0z"/></g></g><g clip-path="url(#cga2a)" opacity=".65"><g opacity=".65"><path fill="#70b4ff" d="M1571 1054a3 3 0 1 1 6 0 3 3 0 0 1-6 0z"/></g></g><g clip-path="url(#cga2a)" opacity=".65"><g opacity=".65"><path fill="#70b4ff" d="M1584 1054a3 3 0 1 1 6 0 3 3 0 0 1-6 0z"/></g></g><g clip-path="url(#cga2a)" opacity=".65"><g opacity=".65"><path fill="#70b4ff" d="M1597 1054a3 3 0 1 1 6 0 3 3 0 0 1-6 0z"/></g></g><g clip-path="url(#cga2a)" opacity=".65"><g opacity=".65"><path fill="#70b4ff" d="M1610 1054a3 3 0 1 1 6 0 3 3 0 0 1-6 0z"/></g></g><g clip-path="url(#cga2a)" opacity=".65"><g opacity=".65"><path fill="#70b4ff" d="M1623 1054a3 3 0 1 1 6 0 3 3 0 0 1-6 0z"/></g></g><g clip-path="url(#cga2a)" opacity=".65"><g opacity=".65"><path fill="#70b4ff" d="M1636 1054a3 3 0 1 1 6 0 3 3 0 0 1-6 0z"/></g></g><g clip-path="url(#cga2a)" opacity=".65"><g opacity=".65"><path fill="#70b4ff" d="M1649 1054a3 3 0 1 1 6 0 3 3 0 0 1-6 0z"/></g></g><g clip-path="url(#cga2a)" opacity=".65"><g opacity=".65"><path fill="#70b4ff" d="M1662 1054a3 3 0 1 1 6 0 3 3 0 0 1-6 0z"/></g></g><g clip-path="url(#cga2a)" opacity=".65"><g opacity=".65"><path fill="#70b4ff" d="M1675 1054a3 3 0 1 1 6 0 3 3 0 0 1-6 0z"/></g></g><g clip-path="url(#cga2a)" opacity=".65"><g opacity=".65"><path fill="#70b4ff" d="M1688 1054a3 3 0 1 1 6 0 3 3 0 0 1-6 0z"/></g></g><g clip-path="url(#cga2a)" opacity=".65"><g opacity=".65"><path fill="#70b4ff" d="M1558 1067a3 3 0 1 1 6 0 3 3 0 0 1-6 0z"/></g></g><g clip-path="url(#cga2a)" opacity=".65"><g opacity=".65"><path fill="#70b4ff" d="M1571 1067a3 3 0 1 1 6 0 3 3 0 0 1-6 0z"/></g></g><g clip-path="url(#cga2a)" opacity=".65"><g opacity=".65"><path fill="#70b4ff" d="M1584 1067a3 3 0 1 1 6 0 3 3 0 0 1-6 0z"/></g></g><g clip-path="url(#cga2a)" opacity=".65"><g opacity=".65"><path fill="#70b4ff" d="M1597 1067a3 3 0 1 1 6 0 3 3 0 0 1-6 0z"/></g></g><g clip-path="url(#cga2a)" opacity=".65"><g opacity=".65"><path fill="#70b4ff" d="M1610 1067a3 3 0 1 1 6 0 3 3 0 0 1-6 0z"/></g></g><g clip-path="url(#cga2a)" opacity=".65"><g opacity=".65"><path fill="#70b4ff" d="M1623 1067a3 3 0 1 1 6 0 3 3 0 0 1-6 0z"/></g></g><g clip-path="url(#cga2a)" opacity=".65"><g opacity=".65"><path fill="#70b4ff" d="M1636 1067a3 3 0 1 1 6 0 3 3 0 0 1-6 0z"/></g></g><g clip-path="url(#cga2a)" opacity=".65"><g opacity=".65"><path fill="#70b4ff" d="M1649 1067a3 3 0 1 1 6 0 3 3 0 0 1-6 0z"/></g></g><g clip-path="url(#cga2a)" opacity=".65"><g opacity=".65"><path fill="#70b4ff" d="M1662 1067a3 3 0 1 1 6 0 3 3 0 0 1-6 0z"/></g></g><g clip-path="url(#cga2a)" opacity=".65"><g opacity=".65"><path fill="#70b4ff" d="M1675 1067a3 3 0 1 1 6 0 3 3 0 0 1-6 0z"/></g></g><g clip-path="url(#cga2a)" opacity=".65"><g opacity=".65"><path fill="#70b4ff" d="M1688 1067a3 3 0 1 1 6 0 3 3 0 0 1-6 0z"/></g></g><g clip-path="url(#cga2a)" opacity=".65"><g opacity=".65"><path fill="#70b4ff" d="M1558 1080a3 3 0 1 1 6 0 3 3 0 0 1-6 0z"/></g></g><g clip-path="url(#cga2a)" opacity=".65"><g opacity=".65"><path fill="#70b4ff" d="M1571 1080a3 3 0 1 1 6 0 3 3 0 0 1-6 0z"/></g></g><g clip-path="url(#cga2a)" opacity=".65"><g opacity=".65"><path fill="#70b4ff" d="M1584 1080a3 3 0 1 1 6 0 3 3 0 0 1-6 0z"/></g></g><g clip-path="url(#cga2a)" opacity=".65"><g opacity=".65"><path fill="#70b4ff" d="M1597 1080a3 3 0 1 1 6 0 3 3 0 0 1-6 0z"/></g></g><g clip-path="url(#cga2a)" opacity=".65"><g opacity=".65"><path fill="#70b4ff" d="M1610 1080a3 3 0 1 1 6 0 3 3 0 0 1-6 0z"/></g></g><g clip-path="url(#cga2a)" opacity=".65"><g opacity=".65"><path fill="#70b4ff" d="M1623 1080a3 3 0 1 1 6 0 3 3 0 0 1-6 0z"/></g></g><g clip-path="url(#cga2a)" opacity=".65"><g opacity=".65"><path fill="#70b4ff" d="M1636 1080a3 3 0 1 1 6 0 3 3 0 0 1-6 0z"/></g></g><g clip-path="url(#cga2a)" opacity=".65"><g opacity=".65"><path fill="#70b4ff" d="M1649 1080a3 3 0 1 1 6 0 3 3 0 0 1-6 0z"/></g></g><g clip-path="url(#cga2a)" opacity=".65"><g opacity=".65"><path fill="#70b4ff" d="M1662 1080a3 3 0 1 1 6 0 3 3 0 0 1-6 0z"/></g></g><g clip-path="url(#cga2a)" opacity=".65"><g opacity=".65"><path fill="#70b4ff" d="M1675 1080a3 3 0 1 1 6 0 3 3 0 0 1-6 0z"/></g></g><g clip-path="url(#cga2a)" opacity=".65"><g opacity=".65"><path fill="#70b4ff" d="M1688 1080a3 3 0 1 1 6 0 3 3 0 0 1-6 0z"/></g></g><g clip-path="url(#cga2a)" opacity=".65"><g opacity=".65"><path fill="#70b4ff" d="M1558 1093a3 3 0 1 1 6 0 3 3 0 0 1-6 0z"/></g></g><g clip-path="url(#cga2a)" opacity=".65"><g opacity=".65"><path fill="#70b4ff" d="M1571 1093a3 3 0 1 1 6 0 3 3 0 0 1-6 0z"/></g></g><g clip-path="url(#cga2a)" opacity=".65"><g opacity=".65"><path fill="#70b4ff" d="M1584 1093a3 3 0 1 1 6 0 3 3 0 0 1-6 0z"/></g></g><g clip-path="url(#cga2a)" opacity=".65"><g opacity=".65"><path fill="#70b4ff" d="M1597 1093a3 3 0 1 1 6 0 3 3 0 0 1-6 0z"/></g></g><g clip-path="url(#cga2a)" opacity=".65"><g opacity=".65"><path fill="#70b4ff" d="M1610 1093a3 3 0 1 1 6 0 3 3 0 0 1-6 0z"/></g></g><g clip-path="url(#cga2a)" opacity=".65"><g opacity=".65"><path fill="#70b4ff" d="M1623 1093a3 3 0 1 1 6 0 3 3 0 0 1-6 0z"/></g></g><g clip-path="url(#cga2a)" opacity=".65"><g opacity=".65"><path fill="#70b4ff" d="M1636 1093a3 3 0 1 1 6 0 3 3 0 0 1-6 0z"/></g></g><g clip-path="url(#cga2a)" opacity=".65"><g opacity=".65"><path fill="#70b4ff" d="M1649 1093a3 3 0 1 1 6 0 3 3 0 0 1-6 0z"/></g></g><g clip-path="url(#cga2a)" opacity=".65"><g opacity=".65"><path fill="#70b4ff" d="M1662 1093a3 3 0 1 1 6 0 3 3 0 0 1-6 0z"/></g></g><g clip-path="url(#cga2a)" opacity=".65"><g opacity=".65"><path fill="#70b4ff" d="M1675 1093a3 3 0 1 1 6 0 3 3 0 0 1-6 0z"/></g></g><g clip-path="url(#cga2a)" opacity=".65"><g opacity=".65"><path fill="#70b4ff" d="M1688 1093a3 3 0 1 1 6 0 3 3 0 0 1-6 0z"/></g></g></g><g opacity=".25"><g opacity=".25"><path fill="none" stroke="#f8fbff" stroke-miterlimit="50" stroke-width="3" d="M1738.078 881.18c3.685-2.127.561-7.537 4.246-9.665 3.686-2.128 6.81 3.283 10.495 1.155 3.687-2.128.563-7.54 4.25-9.668 3.686-2.128 6.81 3.283 10.496 1.155 3.688-2.13.564-7.54 4.252-9.67"/></g></g><g opacity=".25"><g opacity=".25"><path fill="none" stroke="#f8fbff" stroke-miterlimit="50" stroke-width="3" d="M210.704 992.533c3.244-1.873.494-6.636 3.738-8.508 3.244-1.874 5.994 2.89 9.238 1.016 3.245-1.873.495-6.636 3.741-8.51 3.245-1.873 5.995 2.89 9.24 1.016 3.246-1.874.496-6.637 3.743-8.512"/></g></g><g opacity=".3"><path fill="#fff" d="M1825.536 713.869l-3.305-1.22a9.754 9.754 0 0 1-5.778-5.778l-1.225-3.31a.312.312 0 0 0-.294-.206.325.325 0 0 0-.3.206l-1.22 3.31a9.754 9.754 0 0 1-5.777 5.778l-3.31 1.22a.319.319 0 0 0-.206.3c0 .13.082.248.205.293l3.31 1.22a9.761 9.761 0 0 1 5.779 5.783l1.22 3.305a.318.318 0 0 0 .598 0l1.22-3.305a9.761 9.761 0 0 1 5.778-5.783l3.31-1.22a.313.313 0 0 0 .206-.294.317.317 0 0 0-.211-.3z"/></g><g opacity=".3"><path fill="#fff" d="M140.06 524.635l-3.231-1.193a9.537 9.537 0 0 1-5.65-5.65l-1.198-3.236a.305.305 0 0 0-.287-.2.317.317 0 0 0-.293.2l-1.193 3.237a9.537 9.537 0 0 1-5.65 5.65l-3.236 1.192a.312.312 0 0 0-.2.293c0 .128.079.243.2.287l3.236 1.193a9.544 9.544 0 0 1 5.65 5.655l1.193 3.231a.311.311 0 0 0 .585 0l1.193-3.231a9.544 9.544 0 0 1 5.65-5.655l3.236-1.193c.12-.044.201-.159.201-.287a.31.31 0 0 0-.206-.293z"/></g><g><g><path fill="#6db3ff" d="M1789.234 522.365l-20.737-5.556 15.18-15.196z"/></g><g opacity=".89"><path fill="none" stroke="#fff" stroke-miterlimit="50" stroke-width="2" d="M1779.278 524.794v0l-19.948-5.345v0l14.603-14.618v0z"/></g></g><g opacity=".03"><path fill="none" stroke="#fff" stroke-linecap="round" stroke-linejoin="round" stroke-miterlimit="50" stroke-width="109" d="M56.48 261.13v0l279.518 41.573a66.84 66.84 0 0 1 52.264 41.39l104.484 262.55a59.752 59.752 0 0 1-29.548 3.246L205.24 573.646a60.627 60.627 0 0 1-47.766-37.319L59.927 294.82a60.586 60.586 0 0 1-3.447-33.69z"/></g><g opacity=".03"><path fill="none" stroke="#fff" stroke-linecap="round" stroke-linejoin="round" stroke-miterlimit="50" stroke-width="109" d="M397.653 278.14v0l174.09-222.825c8.242 6.439 14.843 15.032 18.863 25.084l97.595 241.5a60.636 60.636 0 0 1-8.437 60.027L519.832 586.63v0l-.432.553c-1.663 2.128-7.901 1.21-10.544 2.71-6.096 3.497-15.259-6.17-23.165-3.256 0 0-16.696-41.34-39.307-97.289-11.6-28.7-23.605-58.521-32.647-81.24l-25.514-64.112a66.823 66.823 0 0 1 9.43-65.857z"/></g><g><g><path fill="none" stroke="#fff" stroke-linecap="round" stroke-miterlimit="50" stroke-width="3" d="M1602.38 620.958h17.229"/></g><g><path fill="none" stroke="#fff" stroke-linecap="round" stroke-miterlimit="50" stroke-width="3" d="M1611.291 612.64v17.23"/></g></g></g></svg>