<svg width="502" height="364" viewBox="0 0 502 364" fill="none" xmlns="http://www.w3.org/2000/svg">
<path d="M496.523 204.031L341.907 301.82L284.595 254.516L182.068 241.376L158.566 295.872L103.454 327.685L5.32422 249.537" stroke="#DBE4FF" stroke-width="1.13" stroke-miterlimit="10"/>
<path d="M498.01 208.069C500.213 207.238 501.33 204.767 500.504 202.549C499.677 200.332 497.222 199.209 495.018 200.04C492.815 200.872 491.699 203.343 492.525 205.56C493.351 207.777 495.807 208.901 498.01 208.069Z" fill="white" stroke="#DBE4FF" stroke-width="1.13" stroke-miterlimit="10"/>
<path d="M343.973 305.676C346.176 304.844 347.292 302.372 346.466 300.155C345.639 297.938 343.183 296.815 340.98 297.646C338.777 298.478 337.661 300.95 338.488 303.167C339.314 305.384 341.77 306.507 343.973 305.676Z" fill="white" stroke="#DBE4FF" stroke-width="1.13" stroke-miterlimit="10"/>
<path d="M268.351 274.005C270.554 273.174 271.67 270.702 270.844 268.485C270.018 266.268 267.562 265.144 265.359 265.976C263.156 266.807 262.04 269.279 262.866 271.496C263.692 273.713 266.148 274.837 268.351 274.005Z" fill="white" stroke="#DBE4FF" stroke-width="1.13" stroke-miterlimit="10"/>
<path d="M220.649 270.984C222.852 270.153 223.968 267.681 223.142 265.464C222.316 263.247 219.86 262.123 217.657 262.955C215.454 263.786 214.338 266.258 215.164 268.475C215.99 270.692 218.446 271.815 220.649 270.984Z" fill="white" stroke="#DBE4FF" stroke-width="1.13" stroke-miterlimit="10"/>
<path d="M160.028 299.889C162.231 299.057 163.347 296.586 162.521 294.368C161.695 292.151 159.239 291.028 157.036 291.859C154.833 292.691 153.717 295.162 154.543 297.379C155.369 299.597 157.825 300.72 160.028 299.889Z" fill="white" stroke="#DBE4FF" stroke-width="1.13" stroke-miterlimit="10"/>
<path d="M7.11248 245.526C11.9228 248.569 8.89915 255.346 3.40169 253.686C-1.40859 250.505 1.61501 243.866 7.11248 245.526Z" fill="white" stroke="#DBE4FF" stroke-width="1.13" stroke-miterlimit="10"/>
<path d="M104.921 331.677C107.124 330.845 108.241 328.374 107.415 326.156C106.588 323.939 104.133 322.816 101.93 323.647C99.7264 324.479 98.6102 326.95 99.4363 329.167C100.262 331.385 102.718 332.508 104.921 331.677Z" fill="white" stroke="#DBE4FF" stroke-width="1.13" stroke-miterlimit="10"/>
<path d="M65.6612 265.305L63.5996 272.359L68.2725 275.402C68.2725 276.785 68.4099 278.03 68.6848 279.413L64.6991 283.424L68.135 289.925L73.6325 288.68C74.5945 289.648 75.5566 290.755 76.6561 291.446L76.5187 297.394L83.5279 299.468L86.689 294.489C88.0633 294.489 89.4377 294.212 90.6746 293.936L94.6603 297.947L101.12 294.489L99.8829 288.956C100.845 287.988 101.807 287.02 102.494 285.913L108.267 286.052L110.328 278.998L105.518 275.955C105.518 274.572 105.38 273.189 105.105 271.944L109.091 267.933L105.655 261.432L100.158 262.677C99.1957 261.708 98.0962 261.155 96.9967 260.325V254.931L89.9874 252.856L86.9638 257.421C85.5895 257.421 84.3525 257.421 82.9782 257.697L78.9925 253.548L72.533 257.006L73.7699 262.538C72.8079 263.507 72.1207 264.613 71.2961 265.72L65.6612 265.305ZM89.3003 266.688C94.1105 268.071 96.8593 273.189 95.3475 278.03C93.9731 282.871 88.8879 285.637 84.0777 284.115C79.2674 282.732 76.5187 277.615 78.0305 272.774C79.4048 267.933 84.49 265.166 89.3003 266.688Z" fill="#7B9CFF"/>
<path d="M22.6438 294.489L18.6581 298.638L20.8571 302.511C20.3074 303.479 19.895 304.448 19.7576 305.416L15.4971 306.799L15.6345 312.608L19.895 313.715C20.1699 314.683 20.4448 315.789 20.9945 316.758L18.7955 320.907L22.9186 324.918L26.9043 322.429C27.8664 322.982 28.9659 323.258 29.9279 323.535L31.3023 327.823L37.0746 327.684L38.1741 323.397C39.1362 323.12 40.2357 322.705 41.1977 322.152L45.1834 324.227L49.169 320.077L46.8326 316.204C47.3824 315.236 47.6572 314.268 47.9321 313.161L52.1926 311.778L52.0552 305.969L47.7947 304.863C47.5198 303.894 46.9701 303.064 46.4203 302.096L48.3444 298.223L44.2213 294.212L40.5105 296.425C39.5485 295.872 38.5864 295.457 37.6244 295.181L36.3874 290.893L30.6151 291.031L29.5156 295.319C28.5535 295.596 27.5915 296.149 26.6294 296.702L22.6438 294.489ZM38.7239 303.894C41.61 306.661 41.7475 311.225 38.9987 314.13C36.25 317.034 31.7146 317.173 28.8284 314.406C25.9423 311.64 25.8048 307.076 28.5535 304.171C31.3023 301.266 35.8377 301.128 38.7239 303.894Z" fill="#B1C4FF"/>
<path d="M57.2755 321.599L56.3135 325.886L59.1996 327.546C59.1996 328.376 59.3371 329.206 59.612 329.898L57.2755 332.387L59.4745 336.122L62.6356 335.153C63.1853 335.707 63.8725 336.26 64.5597 336.675L64.6971 340.133L68.9576 341.101L70.6069 338.058C71.4315 338.058 72.2561 337.92 73.0807 337.781L75.692 340.133L79.4028 337.781L78.4408 334.462C78.9905 333.909 79.4028 333.217 79.8151 332.525L83.2511 332.387L84.2131 328.099L81.1895 326.44C81.1895 325.61 81.0521 324.78 80.7772 324.088L82.9762 321.599L80.7772 317.864L77.6162 318.832C77.0664 318.279 76.3792 318.002 75.692 317.588L75.5546 314.406L71.2941 313.438L69.6448 316.204C68.8202 316.204 68.133 316.343 67.3084 316.481L64.8345 314.13L61.1238 316.343L62.0858 319.524C61.5361 320.077 61.1238 320.769 60.7114 321.46L57.2755 321.599ZM71.2941 321.737C74.1802 322.429 75.9669 325.333 75.2797 328.238C74.5925 331.142 71.7064 332.94 68.8202 332.249C65.934 331.557 64.1474 328.653 64.8345 325.748C65.5217 322.843 68.4079 321.045 71.2941 321.737Z" fill="#DBE4FF"/>
<path opacity="0.7" d="M415.437 75.952C415.162 75.952 414.75 75.952 414.338 75.952C415.3 70.2811 412.001 63.5037 404.442 63.5037C403.068 63.5037 401.969 63.7803 400.869 64.057C398.12 60.8757 393.997 58.9393 389.462 58.9393C381.078 58.9393 374.206 65.8551 374.206 74.2922C374.206 74.8455 374.206 75.3988 374.344 75.952C374.069 75.952 373.794 75.952 373.519 75.952C367.747 75.952 362.937 80.5164 362.937 86.3256C362.937 92.1348 367.609 96.6992 373.519 96.6992H415.3C421.072 96.6992 425.883 92.1348 425.883 86.3256C426.02 80.5164 421.21 75.952 415.437 75.952Z" fill="#DDE5FF"/>
<path opacity="0.7" d="M153.483 142.067C151.147 142.067 149.085 142.758 147.436 144.141C147.161 137.64 141.801 132.523 135.341 132.523C132.593 132.523 130.119 133.491 128.057 135.013C126.683 129.065 121.323 124.501 115.001 124.501C107.579 124.501 101.532 130.586 101.532 138.055C101.532 139.577 101.807 140.96 102.219 142.343C97.5463 143.311 94.1104 147.046 94.1104 152.025C94.1104 157.696 98.6458 161.846 104.281 161.846C109.916 161.846 148.26 161.846 153.483 161.846C159.118 161.846 163.653 157.696 163.653 152.025C163.653 146.354 159.118 142.067 153.483 142.067Z" fill="#DDE5FF"/>
<path opacity="0.7" d="M222.061 331.557L267.553 363.232H176.707L222.061 331.557Z" fill="#DDE5FF"/>
<path opacity="0.5" d="M157.877 342.069L196.909 363.231H118.708L157.877 342.069Z" fill="#DDE5FF"/>
<path opacity="0.7" d="M301.91 320.215L363.482 363.231H240.201L301.91 320.215Z" fill="#C1D1FF"/>
<path opacity="0.7" d="M408.837 308.874L486.489 363.231H331.048L408.837 308.874Z" fill="#9CB5FF"/>
<path d="M440.449 228.79L406.64 249.952L416.81 266.273L450.619 245.111L454.33 251.335L463.126 225.193L436.051 221.597L440.449 228.79Z" fill="#FFCC38"/>
<path d="M401.28 253.409L366.097 275.401L376.267 291.723L411.313 269.731L415.162 275.816L423.957 249.813L396.882 246.217L401.28 253.409Z" fill="#FFEDB9"/>
<path d="M146.748 73.0475L149.359 78.4418L154.856 81.0697L149.359 83.6977L146.748 89.2303L144.136 83.6977L138.776 81.0697L144.136 78.4418L146.748 73.0475Z" fill="#FFE088"/>
<path d="M489.514 274.433L491.3 278.306L495.149 280.243L491.3 282.179L489.514 286.052L487.589 282.179L483.741 280.243L487.589 278.306L489.514 274.433Z" fill="#FFE088"/>
<path d="M446.908 32.3831L448.695 36.2559L452.543 38.1923L448.695 40.1287L446.908 44.0015L444.984 40.1287L441.136 38.1923L444.984 36.2559L446.908 32.3831Z" fill="#FFE088"/>
<path d="M95.0712 194.211L96.8578 198.084L100.706 200.02L96.8578 201.957L95.0712 205.829L93.147 201.957L89.2988 200.02L93.147 198.084L95.0712 194.211Z" fill="#FFE088"/>
<path d="M239.655 249.537L226.324 221.321L212.718 192.689C212.718 192.689 188.804 180.241 160.904 204.861L175.61 212.192C175.61 212.192 146.473 220.906 140.151 262.538C180.833 286.19 201.173 266.273 201.173 266.273L197.462 282.041C234.158 275.955 239.655 249.537 239.655 249.537Z" fill="#FFCC38"/>
<path d="M237.731 236.535L229.76 219.661L221.788 202.787C221.788 202.787 176.984 208.734 175.197 245.941C204.884 267.933 237.731 236.535 237.731 236.535Z" fill="white"/>
<path d="M258.218 242.18L230.837 184.371L212.972 192.941L240.353 250.75L258.218 242.18Z" fill="#FFAF84"/>
<path d="M307.136 125.469L258.484 169.591C258.484 169.591 211.755 166.41 194.988 171.527C172.448 178.443 220.001 112.744 307.136 125.469Z" fill="#9EB6FF"/>
<path d="M351.254 218.416L286.521 228.651C286.521 228.651 259.584 267.103 245.015 277.062C225.499 290.34 306.037 294.489 351.254 218.416Z" fill="#9EB6FF"/>
<path d="M231.409 185.912L257.66 241.376C257.66 241.376 340.259 234.599 390.836 210.394C449.934 182.039 462.44 108.041 462.44 108.041C462.44 108.041 394.272 72.7709 338.335 99.6039C287.758 123.809 229.897 186.742 229.897 186.742L231.409 185.912Z" fill="#4B78FF"/>
<path d="M438.802 166.686C457.493 137.64 470.962 104.03 470.962 104.03C470.962 104.03 436.191 94.3479 402.656 90.4751L438.802 166.686Z" fill="#FFAF84"/>
<path d="M381.534 189.996C400.856 180.727 409.053 157.449 399.843 138.003C390.632 118.558 367.502 110.308 348.179 119.577C328.857 128.847 320.66 152.125 329.871 171.571C339.081 191.016 362.212 199.266 381.534 189.996Z" fill="white"/>
<path d="M375.206 176.637C387.197 170.885 392.283 156.439 386.568 144.372C380.852 132.305 366.498 127.185 354.507 132.938C342.516 138.69 337.429 153.136 343.145 165.203C348.861 177.27 363.215 182.39 375.206 176.637Z" fill="#FFCC38"/>
<path d="M271.123 213.99C298.667 200.776 318.534 184.866 315.496 178.453C312.459 172.04 287.667 177.553 260.123 190.767C232.578 203.981 212.711 219.891 215.749 226.304C218.786 232.717 243.578 227.204 271.123 213.99Z" fill="#9EB6FF"/>
<path d="M308.099 184.806L301.777 191.445L325.554 204.031C326.378 200.712 324.454 197.392 321.293 196.286L316.758 194.488C314.696 193.381 314.421 190.615 316.208 189.232L308.099 184.806Z" fill="white"/>
<path d="M253.536 129.065L293.668 122.564L326.79 116.617C336.41 114.819 344.244 124.501 340.534 133.768L317.994 190.891L307.136 185.497L321.705 142.343C321.705 142.343 302.326 148.844 284.459 154.515C271.128 158.664 257.247 150.227 254.91 136.396L253.536 129.065Z" fill="#1D262D"/>
<path d="M314.009 4.58203L314.972 9.97629C315.246 11.6361 315.246 13.4342 314.834 15.2322L314.559 16.3388L304.252 18.5518L304.114 18.4135C301.228 16.6154 299.441 13.5725 298.892 10.1146L298.342 8.73147L314.009 4.58203Z" fill="#FFAF84"/>
<path d="M299.029 6.65649C297.929 6.79481 297.242 7.90132 297.38 9.00784L297.929 12.1891C298.204 13.7105 299.716 14.817 301.365 14.5404C301.915 14.4021 302.327 13.8488 302.19 13.2956L301.228 8.31627C301.228 7.07144 300.128 6.37986 299.029 6.65649Z" fill="#FFAF84"/>
<path d="M299.578 2.92212C298.478 3.06043 297.791 4.16695 297.929 5.27346L298.616 9.28458C298.753 10.3911 299.853 11.0827 300.815 10.9444C301.914 10.806 302.739 9.69953 302.464 8.59301L301.777 4.58189C301.639 3.33706 300.677 2.64549 299.578 2.92212Z" fill="#FFAF84"/>
<path d="M303.152 0.294149C302.052 0.570778 301.228 1.53898 301.502 2.64549L302.465 8.4547C302.602 9.56122 303.701 10.3911 304.938 10.1145C306.038 9.83785 306.863 8.86964 306.588 7.76313L305.626 1.95392C305.351 0.847406 304.389 0.155834 303.152 0.294149Z" fill="#FFAF84"/>
<path d="M307.137 0.0175373C306.038 0.155852 305.351 1.26237 305.488 2.36888L306.45 7.90146C306.588 9.00798 307.687 9.69955 308.787 9.56124C309.886 9.42292 310.573 8.3164 310.436 7.20989L309.474 1.67731C309.199 0.570795 308.237 -0.120777 307.137 0.0175373Z" fill="#FFAF84"/>
<path d="M311.26 0.709132C310.161 0.847447 309.474 1.95396 309.611 3.06048L310.298 7.20991C310.436 8.31643 311.535 9.008 312.635 8.86969C313.734 8.73137 314.421 7.62486 314.284 6.51834L313.597 2.36891C313.459 1.26239 312.36 0.432503 311.26 0.709132Z" fill="#FFAF84"/>
<path d="M253.261 63.2272C246.115 64.6104 240.342 69.5897 238.006 76.5054L223.438 110.946C221.239 116.063 223.712 120.766 229.485 123.117L256.148 137.364L266.868 133.768L294.492 122.702L286.246 73.0476L316.207 64.0571C320.88 62.674 323.629 57.9713 322.667 53.2686V53.1303L315.108 14.2639L302.601 16.6153L307.274 49.2575L253.261 63.2272ZM250.1 119.936L238.968 113.989L245.977 97.8059L250.1 119.936Z" fill="#FFCC38"/>
<path d="M280.474 23.2545C279.375 16.7537 272.228 10.3912 263.707 9.69964C255.324 9.00806 247.627 13.9874 244.603 21.8713L244.054 23.1161C242.13 28.2338 242.404 33.9047 244.878 38.7457L253.262 53.822L255.049 62.8124L256.148 63.7806C261.233 68.4833 269.067 65.9936 270.716 59.2162L268.93 49.9492L276.076 48.8426C281.162 47.8744 284.323 42.8951 283.498 37.7775V37.6392L282.261 30.8618L280.474 23.2545Z" fill="#FFAF84"/>
<path d="M275.526 38.6072C275.938 40.8202 274.426 43.0332 272.227 43.4482C270.028 43.8631 267.829 42.3417 267.417 40.1286" fill="white"/>
<path d="M278.001 131.831C278.413 130.725 277.863 129.618 276.764 129.342L268.518 126.437L264.395 129.203L275.389 133.076C276.489 133.491 277.588 132.938 278.001 131.831Z" fill="#FFAF84"/>
<path d="M278.412 136.257C278.824 135.151 278.274 134.044 277.175 133.629L264.531 129.065L263.156 133.076L275.8 137.64C276.9 137.917 277.999 137.364 278.412 136.257Z" fill="#FFAF84"/>
<path d="M275.389 139.438C275.802 138.332 275.252 137.225 274.152 136.949L263.158 133.076L261.783 136.81L272.778 140.683C273.878 140.96 274.977 140.407 275.389 139.438Z" fill="#FFAF84"/>
<path d="M268.793 141.375C269.206 140.268 268.656 139.162 267.557 138.885L262.746 137.225C262.196 137.087 261.509 137.364 261.372 137.917L260.822 139.715C260.685 140.268 260.96 140.96 261.509 141.098L266.32 142.758C267.419 142.896 268.519 142.343 268.793 141.375Z" fill="#FFAF84"/>
<path d="M262.744 141.375L259.033 140.13L256.284 137.502L259.583 127.405L259.72 127.267C262.744 125.607 266.18 125.607 269.478 126.852L269.616 126.575L262.744 141.375Z" fill="#FFAF84"/>
<path d="M278.275 15.2321C272.915 5.68837 261.646 2.92208 252.025 7.34814C250.513 8.03971 249.001 9.00791 247.765 9.97612L209.557 35.426C206.946 37.2241 206.259 40.8202 208.183 43.4482C209.969 45.7996 213.268 46.4911 215.742 44.8314L217.116 44.0015C219.178 42.6183 222.064 43.0333 223.576 45.108C225.088 47.321 224.675 50.3639 222.339 51.8854L205.572 63.2272C202.96 65.0253 202.273 68.6215 204.197 71.2494C205.984 73.6008 209.282 74.2924 211.756 72.6326L250.101 47.1827L251.475 34.4578L256.561 31.9681C265.082 29.0635 272.915 24.7758 280.062 19.2432C279.925 18.9666 279.65 17.5834 278.275 15.2321Z" fill="#1D262D"/>
<path d="M253.692 40.0813C255.781 39.6851 257.155 37.6601 256.761 35.5582C256.368 33.4563 254.356 32.0735 252.267 32.4696C250.178 32.8658 248.804 34.8908 249.198 36.9927C249.592 39.0946 251.604 40.4774 253.692 40.0813Z" fill="#FFAF84"/>
</svg>
