<svg width="74" height="69" viewBox="0 0 74 69" fill="none" xmlns="http://www.w3.org/2000/svg">
<path d="M59.1863 62.7361C63.323 56.5518 67.4597 50.3676 71.5449 44.153C74.1704 40.1515 74.3959 35.8489 72.0965 31.4016C68.4785 24.3428 64.8068 17.3049 61.0553 10.2858C58.7876 6.03425 55.1166 3.57612 50.365 3.08128C42.3581 2.24885 34.3324 1.55628 26.3162 0.95459C21.5585 0.613579 17.6913 2.38339 15.0993 6.20778C10.8544 12.4597 6.6863 18.7699 2.50557 25.0661C-0.20287 29.1632 -0.404162 33.5194 1.93104 38.0599C5.52696 45.0139 9.16384 51.9329 12.8144 58.8402C15.1905 63.3457 18.9939 65.7897 24.0218 66.296C27.895 66.675 31.7575 66.9888 35.6327 67.3166C39.468 67.6537 43.3159 68.0048 47.1522 68.3163C52.3671 68.7618 56.396 66.9033 59.1863 62.7361ZM5.52401 28.6761C6.55 26.7594 7.87241 25.0104 9.06555 23.1985C12.2231 18.4204 15.3797 13.6679 18.5625 8.91779C20.3989 6.18477 23.0319 4.94969 26.4606 5.23819C30.362 5.56826 34.2625 5.92396 38.1503 6.26569C42.1169 6.61435 46.0709 6.94903 50.0365 7.32332C52.3481 7.52651 52.3724 7.5801 51.1645 9.42929C47.2473 15.4013 43.3426 21.3873 39.3738 27.329C37.1155 30.7196 33.783 32.3049 29.5401 31.9448C21.7634 31.287 14.0161 30.5546 6.24153 29.8455C5.0857 29.7439 4.99736 29.646 5.52401 28.6761ZM48.8508 64.0917C48.4148 64.1177 47.9945 64.0808 47.5479 64.0415C43.6202 63.7092 39.6935 63.3511 35.7532 63.0048C31.8916 62.6654 28.0164 62.3376 24.1423 61.9842C20.8071 61.6654 18.302 60.043 16.734 57.075C13.1204 50.2352 9.53397 43.3721 5.9602 36.523C5.67921 35.9708 5.4518 35.3977 5.19811 34.8222C5.00546 34.3679 5.12083 34.1208 5.65986 34.1553C5.84374 34.1715 6.02762 34.1876 6.21151 34.2038C13.7381 34.8525 21.2647 35.5012 28.7786 36.1359C30.0921 36.2514 31.3741 36.4927 32.6227 36.9112C35.1597 37.7388 37.0364 39.2545 38.2835 41.6797C41.9374 48.8317 45.6973 55.9674 49.4184 63.0868C49.8699 63.9883 49.8678 64.0396 48.8508 64.0917ZM54.3577 61.8614C54.2588 61.6984 54.1862 61.5376 54.0873 61.3745C50.5053 54.7305 46.897 48.0842 43.315 41.4401C42.6889 40.2916 42.2099 39.0918 41.8652 37.8265C41.2023 35.2983 41.4788 33.0071 42.9364 30.8454C47.2148 24.4162 51.3901 17.9266 55.6033 11.4789C56.1364 10.6767 56.1763 10.6674 56.7895 11.4803C57.0525 11.825 57.2608 12.2164 57.4566 12.5938C59.3338 16.0649 61.1975 19.5477 63.0747 23.0188C64.9142 26.448 66.7809 29.8538 68.594 33.2807C70.1757 36.237 70.1129 39.113 68.3825 41.8297C64.3625 48.0628 60.3162 54.2936 56.2709 60.4988C55.9477 60.9978 55.5604 61.4526 55.1983 61.9353C54.9192 62.3224 54.6155 62.3343 54.3577 61.8614Z" fill="#4DA1FF" fill-opacity="0.2"/>
</svg>
