<svg width="606" height="500" viewBox="0 0 606 500" fill="none" xmlns="http://www.w3.org/2000/svg">
<g clip-path="url(#clip0)">
<path opacity="0.1" d="M187.116 25.2612C207.676 3.09489 239.953 -1.41872 269.33 0.345296C361.603 5.88844 444.898 59.7253 516.947 120.625C543.029 142.672 568.708 166.451 585.655 196.791C620.124 258.594 609.897 344.215 561.974 395.126C545.668 412.452 525.9 425.729 505.607 437.506C469.528 458.436 430.605 475.235 389.648 480.018C360.444 483.427 330.905 480.646 301.848 475.9C220.736 462.604 141.119 433.212 74.3827 382.904C45.1005 360.844 17.5123 333.417 5.44909 297.71C-6.61416 262.003 1.10632 216.798 30.9917 195.673C43.3539 186.935 58.1288 182.993 72.5994 179.283C93.8989 173.834 115.534 168.454 134.757 157.367C154.609 145.917 178.111 123.77 174.182 98.4206C169.966 71.2448 166.583 47.3584 187.116 25.2612Z" fill="#5669FF"/>
<path d="M134.636 281.118C134.636 281.118 140.075 276.454 145.702 279.335C145.702 279.335 144.129 283.34 137.117 283.29L134.636 281.118Z" fill="#5669FF"/>
<path d="M133.961 281.388C133.961 281.388 132.508 289.204 136.934 294.276C136.934 294.276 139.389 290.968 136.599 283.271L133.961 281.388Z" fill="#5669FF"/>
<path d="M126.769 274.276C126.769 274.276 126.968 267.678 139.451 269.291C139.451 269.291 139.645 273.535 135.354 275.745C131.064 277.954 129.008 276.366 126.769 274.276Z" fill="#5669FF"/>
<path d="M125.998 274.263C125.998 274.263 120.811 276.523 125.941 290.246C125.941 290.246 129.371 289.16 129.806 283.592C130.242 278.023 128.343 276.184 125.998 274.263Z" fill="#5669FF"/>
<path d="M118.671 265.255C118.671 265.255 117.622 254.457 130.336 254.984C130.336 254.984 131.548 264.746 120.995 267.753L118.671 265.255Z" fill="#5669FF"/>
<path d="M109.896 253.415C109.896 253.415 111.243 241.067 124.057 244.137C124.057 244.137 124.445 254.746 112.077 256.246L109.896 253.415Z" fill="#5669FF"/>
<path d="M103.366 241.054C103.366 241.054 105.894 228.945 118.576 231.971C118.576 231.971 115.954 242.862 104.274 243.226L103.366 241.054Z" fill="#5669FF"/>
<path d="M97.1504 228.983C97.1504 228.983 99.5998 216.427 111.836 219.616C111.836 219.616 108.165 231.588 98.0053 231.06L97.1504 228.983Z" fill="#5669FF"/>
<path d="M93.0234 217.432C93.0234 217.432 94.728 202.158 106.136 204.996C106.136 204.996 103.293 218.951 93.9151 219.598L93.0234 217.432Z" fill="#5669FF"/>
<path d="M89.0527 203.426C89.0527 203.426 91.1874 188.015 102.768 191.938C102.768 191.938 98.7401 206.597 89.9181 205.504L89.0527 203.426Z" fill="#5669FF"/>
<path d="M86.4512 190.363C86.4512 190.363 90.1226 174.882 98.9969 174.888C98.9969 174.888 95.2468 191.21 87.2903 193.395L86.4512 190.363Z" fill="#5669FF"/>
<path d="M84.6572 177.544C84.6572 177.544 88.6066 158.924 95.8551 160.017C95.8551 160.017 93.1644 174.229 85.0034 180.4L84.6572 177.544Z" fill="#5669FF"/>
<path d="M83.3828 162.214C83.3828 162.214 87.1434 146.683 94.2345 145.741C94.2345 145.741 91.8219 160.964 83.666 166.194L83.3828 162.214Z" fill="#5669FF"/>
<path d="M82.0615 147.951C82.0615 147.951 86.8763 132.351 91.5653 131.786C91.5653 131.786 89.7453 147.009 82.6122 150.45L82.0615 147.951Z" fill="#5669FF"/>
<path d="M81.0488 134.655C81.0488 134.655 83.7762 117.825 88.4231 116.23C88.4231 116.23 88.2186 129.897 81.5576 135.879L81.0488 134.655Z" fill="#5669FF"/>
<path d="M78.7266 117.304C78.7266 117.304 81.7319 103.857 85.4662 101.654C85.4662 101.654 85.2145 117.348 79.6969 120.486L78.7266 117.304Z" fill="#5669FF"/>
<path d="M76.8906 105.916L75.4482 82.5131C75.4482 82.5131 83.1058 99.877 77.5462 110.028L76.8906 105.916Z" fill="#5669FF"/>
<path d="M70.6485 82.8772C70.6485 82.8772 64.9892 65.9966 63.7305 65.0989C63.7305 65.0989 74.1153 75.7709 73.5909 90.0713L70.6485 82.8772Z" fill="#5669FF"/>
<path d="M118.325 265.192C118.325 265.192 109.277 264.194 110.038 279.398C110.038 279.398 118.22 280.61 120.47 267.904L118.325 265.192Z" fill="#5669FF"/>
<path d="M109.46 253.026C109.46 253.026 99.0651 253.459 100.408 268.996C100.408 268.996 109.193 270.465 111.611 255.87L109.46 253.026Z" fill="#5669FF"/>
<path d="M103.298 242.071C103.298 242.071 93.6894 237.206 88.0879 251.155C88.0879 251.155 96.9465 255.166 104.2 244.25L103.298 242.071Z" fill="#5669FF"/>
<path d="M96.9421 229.108C96.9421 229.108 87.1027 223.91 81.8525 237.533C81.8525 237.533 92.0538 241.218 97.8075 231.18L96.9421 229.108Z" fill="#5669FF"/>
<path d="M93.1539 217.752C93.1539 217.752 83.5138 207.544 76.4385 218.643C76.4385 218.643 86.2202 226.955 93.6575 220.1L93.1539 217.752Z" fill="#5669FF"/>
<path d="M89.5673 203.037C89.5673 203.037 79.8642 192.591 72.8623 204.293C72.8623 204.293 83.651 212.736 89.9764 205.291L89.5673 203.037Z" fill="#5669FF"/>
<path d="M87.3959 189.867C87.3959 189.867 79.7541 176.621 71.3623 180.036C71.3623 180.036 79.3031 194.073 87.4169 193.062L87.3959 189.867Z" fill="#5669FF"/>
<path d="M84.8731 177.45C84.8731 177.45 77.053 160.676 70.2871 163.959C70.2871 163.959 75.9411 176.866 85.1459 180.312L84.8731 177.45Z" fill="#5669FF"/>
<path d="M83.8505 161.316C83.8505 161.316 75.9517 148.196 69.0127 150.161C69.0127 150.161 75.5531 163.532 84.7002 165.183L83.8505 161.316Z" fill="#5669FF"/>
<path d="M82.8438 147.612C82.8438 147.612 76.5761 132.772 71.8662 132.853C71.8662 132.853 75.1233 147.731 82.5343 150.167L82.8438 147.612Z" fill="#5669FF"/>
<path d="M81.2698 134.316C81.2698 134.316 74.3465 119.312 69.5107 119.501C69.5107 119.501 73.2241 132.433 81.0967 135.672L81.2698 134.316Z" fill="#5669FF"/>
<path d="M79.7848 118.17C79.7848 118.17 74.5662 105.728 70.5381 104.478C70.5381 104.478 73.4385 119.796 79.36 121.554L79.7848 118.17Z" fill="#5669FF"/>
<path d="M76.3029 105.502L64.9268 86.3926C64.9268 86.3926 68.2992 105.615 77.9918 109.168L76.3029 105.502Z" fill="#5669FF"/>
<path d="M68.2413 84.5659C68.2413 84.5659 55.4386 74.8167 54.9141 73.1657C54.9141 73.1657 61.7324 87.3406 73.6173 89.3494L68.2413 84.5659Z" fill="#5669FF"/>
<path d="M67.345 79.958C67.345 79.958 52.4705 64.107 48.8096 64.2954C48.8096 64.2954 60.663 64.3958 67.6912 79.0666L67.345 79.958Z" fill="#5669FF"/>
<path d="M79.7224 120.681L79.1979 120.788C75.6943 95.6458 71.2833 80.8997 66.7832 79.255L66.9353 78.6272C71.6977 80.3598 76.1348 94.8925 79.7224 120.681Z" fill="#444053"/>
<path d="M85.6225 180.871L84.8358 180.984C84.5945 178.636 84.3847 176.225 84.2221 173.827C82.8008 152.954 81.0175 133.808 79.0244 119.482L79.4597 118.785C81.4581 133.136 83.5875 152.848 85.0141 173.752C85.1767 176.138 85.3812 178.529 85.6225 180.871Z" fill="#444053"/>
<path d="M149.758 292.468C149.616 292.399 135.476 285.607 120.475 268.544C111.691 258.557 104.284 246.967 98.5307 234.206C91.3399 218.254 86.6353 198.454 84.6475 179.107L85.4866 179.534C89.9448 222.962 107.473 251.99 121.152 267.59C136.005 284.502 149.999 291.225 150.13 291.288L149.758 292.468Z" fill="#444053"/>
<g opacity="0.7">
<path opacity="0.7" d="M156.581 241.343C156.581 241.343 162.933 238.832 167.595 243.584C167.595 243.584 165.094 246.849 158.412 244.3L156.581 241.343Z" fill="#5669FF"/>
<path opacity="0.7" d="M155.868 241.356C155.868 241.356 152.542 248.305 155.506 254.715C155.506 254.715 158.653 252.436 157.924 244.093L155.868 241.356Z" fill="#5669FF"/>
<path opacity="0.7" d="M150.765 232.008C150.765 232.008 152.6 225.781 164.113 231.763C164.113 231.763 163.247 235.888 158.595 236.465C153.943 237.043 152.391 234.789 150.765 232.008Z" fill="#5669FF"/>
<path opacity="0.7" d="M150.035 231.726C150.035 231.726 144.528 232.04 146.007 246.962C146.007 246.962 149.558 247.15 151.357 241.983C153.156 236.817 151.798 234.388 150.035 231.726Z" fill="#5669FF"/>
<path opacity="0.7" d="M145.283 220.495C145.283 220.495 146.956 209.823 158.967 214.845C158.967 214.845 157.703 224.594 146.878 223.709L145.283 220.495Z" fill="#5669FF"/>
<path opacity="0.7" d="M139.851 206.057C139.851 206.057 144.204 194.757 155.659 202.24C155.659 202.24 153.393 212.504 141.209 209.534L139.851 206.057Z" fill="#5669FF"/>
<path opacity="0.7" d="M136.683 191.963C136.683 191.963 142.111 181.291 153.466 188.705C153.466 188.705 148.221 198.159 137.013 194.355L136.683 191.963Z" fill="#5669FF"/>
<path opacity="0.7" d="M133.75 178.222C133.75 178.222 139.205 167.123 150.109 174.512C150.109 174.512 143.631 184.631 134.065 180.513L133.75 178.222Z" fill="#5669FF"/>
<path opacity="0.7" d="M132.68 165.723C132.68 165.723 138.103 151.749 148.299 158.529C148.299 158.529 142.115 170.833 133.005 168.115L132.68 165.723Z" fill="#5669FF"/>
<path opacity="0.7" d="M132.376 150.939C132.376 150.939 138.245 136.984 148.32 144.856C148.32 144.856 140.836 157.411 132.685 153.231L132.376 150.939Z" fill="#5669FF"/>
<path opacity="0.7" d="M133.146 137.524C133.146 137.524 140.489 124.052 148.965 127.216C148.965 127.216 141.323 141.485 133.188 140.719L133.146 137.524Z" fill="#5669FF"/>
<path opacity="0.7" d="M134.636 124.661C134.636 124.661 143.028 108.295 149.684 111.917C149.684 111.917 143.579 124.529 134.259 127.511L134.636 124.661Z" fill="#5669FF"/>
<path opacity="0.7" d="M137.201 109.576C137.201 109.576 144.659 96.0853 151.656 97.7112C151.656 97.7112 145.571 111.39 136.487 113.474L137.201 109.576Z" fill="#5669FF"/>
<path opacity="0.7" d="M139.493 95.4826C139.493 95.4826 147.964 82.2996 152.579 83.4421C152.579 83.4421 147.056 97.3282 139.394 98.0627L139.493 95.4826Z" fill="#5669FF"/>
<path opacity="0.7" d="M141.827 82.4314C141.827 82.4314 148.614 67.3651 153.45 67.4656C153.45 67.4656 149.852 80.4414 142.011 83.7874L141.827 82.4314Z" fill="#5669FF"/>
<path opacity="0.7" d="M143.92 65.0361C143.92 65.0361 150.135 53.2719 154.247 52.4809C154.247 52.4809 150.104 67.384 144.062 68.4323L143.92 65.0361Z" fill="#5669FF"/>
<path opacity="0.7" d="M145 53.5104L149.443 30.6473C149.443 30.6473 152.437 49.951 144.602 57.6411L145 53.5104Z" fill="#5669FF"/>
<path opacity="0.7" d="M144.78 29.2977C144.78 29.2977 143.568 11.1679 142.593 9.83704C142.593 9.83704 149.862 23.698 145.803 37.1949L144.78 29.2977Z" fill="#5669FF"/>
<path opacity="0.7" d="M144.964 220.326C144.964 220.326 136.572 216.157 133.524 230.947C133.524 230.947 141.03 235.015 146.338 223.684L144.964 220.326Z" fill="#5669FF"/>
<path opacity="0.7" d="M139.525 205.554C139.525 205.554 129.492 202.271 126.911 217.582C126.911 217.582 134.936 222.115 140.873 209.038L139.525 205.554Z" fill="#5669FF"/>
<path opacity="0.7" d="M136.368 192.905C136.368 192.905 128.406 184.838 119.584 196.163C119.584 196.163 127.042 203.15 136.688 195.297L136.368 192.905Z" fill="#5669FF"/>
<path opacity="0.7" d="M133.525 178.266C133.525 178.266 125.416 169.803 117.024 180.934C117.024 180.934 125.846 188.09 133.834 180.557L133.525 178.266Z" fill="#5669FF"/>
<path opacity="0.7" d="M132.733 166.081C132.733 166.081 126.061 152.898 116.547 160.971C116.547 160.971 123.822 172.396 132.628 168.504L132.733 166.081Z" fill="#5669FF"/>
<path opacity="0.7" d="M132.962 150.751C132.962 150.751 126.291 137.323 116.703 146.011C116.703 146.011 124.906 157.939 132.789 153.061L132.962 150.751Z" fill="#5669FF"/>
<path opacity="0.7" d="M134.159 137.398C134.159 137.398 130.157 122.037 121.299 122.332C121.299 122.332 125.39 138.566 133.388 140.487L134.159 137.398Z" fill="#5669FF"/>
<path opacity="0.7" d="M134.836 124.648C134.836 124.648 131.542 105.847 124.268 106.575C124.268 106.575 126.46 120.913 134.39 127.486L134.836 124.648Z" fill="#5669FF"/>
<path opacity="0.7" d="M137.878 108.885C137.878 108.885 133.598 93.5428 126.48 92.9465C126.48 92.9465 129.402 108.044 137.726 112.878L137.878 108.885Z" fill="#5669FF"/>
<path opacity="0.7" d="M140.322 95.4387C140.322 95.4387 138.025 79.0415 133.504 77.4407C133.504 77.4407 132.922 92.8021 139.389 97.7739L140.322 95.4387Z" fill="#5669FF"/>
<path opacity="0.7" d="M142.121 82.1866C142.121 82.1866 139.242 65.394 134.579 63.856C134.579 63.856 134.91 77.5223 141.623 83.417L142.121 82.1866Z" fill="#5669FF"/>
<path opacity="0.7" d="M144.712 66.2666C144.712 66.2666 142.824 52.5311 139.289 49.9008C139.289 49.9008 138.24 65.5572 143.485 69.3615L144.712 66.2666Z" fill="#5669FF"/>
<path opacity="0.7" d="M144.544 52.8826L138.429 30.5845C138.429 30.5845 136.855 50.133 145.247 56.9819L144.544 52.8826Z" fill="#5669FF"/>
<path opacity="0.7" d="M142.053 30.051C142.053 30.051 132.23 16.1711 132.156 14.4197C132.156 14.4197 135.162 30.3837 145.987 36.5295L142.053 30.051Z" fill="#5669FF"/>
<path opacity="0.7" d="M142.341 25.3365C142.341 25.3365 132.076 4.9028 128.536 3.77283C128.536 3.77283 139.823 8.09811 142.865 24.5894L142.341 25.3365Z" fill="#5669FF"/>
<path opacity="0.7" d="M144.04 68.5768L143.516 68.4889C146.416 43.2466 145.876 27.5902 141.984 24.42L142.283 23.8989C146.411 27.27 147.014 42.7192 144.04 68.5768Z" fill="#444053"/>
<path opacity="0.7" d="M134.704 128.214L133.923 128.045C134.28 125.716 134.678 123.343 135.119 120.989C138.953 100.555 142.01 81.6467 143.663 67.2584L144.255 66.7437C142.598 81.1822 139.729 100.737 135.895 121.202C135.454 123.506 135.056 125.866 134.704 128.214Z" fill="#444053"/>
<path opacity="0.7" d="M168.204 257.565C168.089 257.452 156.277 245.932 146.175 224.293C140.272 211.631 136.083 197.928 133.766 183.696C130.866 165.905 131.29 145.327 134.207 126.149L134.899 126.852C128.369 169.904 137.888 203.866 147.088 223.634C157.053 245.066 168.739 256.466 168.86 256.579L168.204 257.565Z" fill="#444053"/>
</g>
<path d="M532.016 473.402C532.016 473.402 509.841 471.801 512.458 490.402C512.458 490.402 511.933 493.685 514.425 495.179C514.425 495.179 514.467 493.798 516.701 494.269C517.496 494.429 518.304 494.475 519.108 494.407C520.197 494.315 521.231 493.804 522.056 492.95C522.056 492.95 528.287 489.868 530.71 477.677C530.71 477.677 532.504 475.015 532.436 474.331L528.691 476.214C528.691 476.214 529.971 479.447 528.963 482.128C528.963 482.128 528.843 476.333 528.124 476.478C527.977 476.509 526.178 477.601 526.178 477.601C526.178 477.601 528.381 483.251 526.703 487.319C526.703 487.319 527.332 480.382 525.476 478.003L522.853 479.849C522.853 479.849 525.423 485.662 523.682 490.402C523.682 490.402 524.128 483.126 522.297 480.295L519.911 482.523C519.911 482.523 522.329 488.255 520.855 492.184C520.855 492.184 520.661 483.716 519.397 483.076C519.397 483.076 517.299 485.279 516.989 486.214C516.989 486.214 518.642 490.37 517.619 492.567C517.619 492.567 516.989 486.917 516.47 486.917C516.47 486.917 514.372 490.653 514.173 493.195C514.173 493.195 514.262 489.385 515.967 486.541C514.767 486.811 513.66 487.496 512.783 488.512C512.783 488.512 513.108 485.869 516.454 485.637C516.454 485.637 518.175 482.806 518.636 482.63C518.636 482.63 515.274 482.297 513.239 483.377C513.239 483.377 515.033 480.866 519.25 482.015L521.605 479.711C521.605 479.711 517.183 478.989 515.311 479.786C515.311 479.786 517.467 477.583 522.24 479.19L524.804 477.357C524.804 477.357 521.038 476.384 518.794 476.729C518.794 476.729 521.164 475.197 525.56 476.854L527.395 475.869C527.395 475.869 524.631 475.241 523.824 475.115C523.016 474.99 522.974 474.745 522.974 474.745C524.721 474.396 526.515 474.635 528.156 475.436C528.156 475.436 532.084 473.697 532.016 473.402Z" fill="#5669FF"/>
<path opacity="0.1" d="M516.743 499.975C525.409 499.975 532.435 498.553 532.435 496.798C532.435 495.044 525.409 493.622 516.743 493.622C508.076 493.622 501.05 495.044 501.05 496.798C501.05 498.553 508.076 499.975 516.743 499.975Z" fill="#5669FF"/>
<path d="M574.552 424.392C574.552 424.392 562.053 423.495 563.538 433.978C563.461 434.51 563.527 435.056 563.726 435.54C563.924 436.024 564.246 436.42 564.644 436.671C564.644 436.671 564.67 435.893 565.929 436.157C566.378 436.25 566.834 436.278 567.288 436.238C567.9 436.189 568.483 435.9 568.945 435.416C568.945 435.416 572.459 433.677 573.828 426.803C573.828 426.803 574.84 425.303 574.798 424.92L572.7 425.999C572.7 425.999 573.419 427.82 572.853 429.333C572.853 429.333 572.784 426.062 572.38 426.144C572.297 426.144 571.284 426.772 571.284 426.772C571.284 426.772 572.522 429.948 571.588 432.252C571.588 432.252 571.945 428.341 570.896 427.004L569.412 428.04C569.412 428.04 570.859 431.317 569.879 433.991C569.879 433.991 570.13 429.892 569.097 428.291L567.754 429.546C567.754 429.546 569.113 432.779 568.279 434.995C568.279 434.995 568.169 430.224 567.455 429.86C566.946 430.377 566.49 430.965 566.097 431.612C566.097 431.612 567.031 433.959 566.454 435.196C566.454 435.196 566.097 432.013 565.809 432.001C565.809 432.001 564.634 434.11 564.513 435.554C564.569 434.214 564.919 432.915 565.525 431.787C564.848 431.94 564.223 432.326 563.726 432.899C563.726 432.899 563.91 431.411 565.824 431.279C565.824 431.279 566.795 429.678 567.052 429.584C567.052 429.584 565.158 429.396 564.01 430.005C564.01 430.005 565.022 428.598 567.398 429.232L568.73 427.939C568.73 427.939 566.233 427.531 565.179 427.983C565.179 427.983 566.396 426.728 569.087 427.644L570.534 426.608C569.42 426.317 568.28 426.198 567.141 426.257C567.141 426.257 568.478 425.397 570.954 426.332L572.003 425.773C572.003 425.773 570.429 425.409 569.989 425.353C569.548 425.296 569.506 425.139 569.506 425.139C570.493 424.943 571.506 425.078 572.433 425.529C572.433 425.529 574.589 424.562 574.552 424.392Z" fill="#5669FF"/>
<path opacity="0.1" d="M565.945 439.377C570.831 439.377 574.793 438.576 574.793 437.588C574.793 436.6 570.831 435.799 565.945 435.799C561.058 435.799 557.097 436.6 557.097 437.588C557.097 438.576 561.058 439.377 565.945 439.377Z" fill="#5669FF"/>
<path d="M500.762 433.495C500.762 433.495 485.667 432.403 487.45 445.065C487.358 445.706 487.437 446.366 487.677 446.951C487.918 447.535 488.306 448.013 488.788 448.316C488.788 448.316 488.788 447.381 490.335 447.689C490.877 447.797 491.428 447.831 491.976 447.789C492.716 447.725 493.419 447.377 493.98 446.797C493.98 446.797 498.223 444.7 499.875 436.395C499.875 436.395 501.097 434.587 501.045 434.123L498.501 435.422C498.501 435.422 499.372 437.626 498.685 439.452C498.685 439.452 498.606 435.504 498.113 435.598C498.013 435.598 496.791 436.357 496.791 436.357C496.791 436.357 498.286 440.193 497.158 442.974C497.158 442.974 497.589 438.253 496.325 436.634L494.531 437.889C494.531 437.889 496.277 441.844 495.092 445.077C495.092 445.077 495.396 440.124 494.153 438.172L492.527 439.685C492.527 439.685 494.174 443.583 493.172 446.264C493.172 446.264 493.041 440.501 492.176 440.061C492.176 440.061 490.754 441.562 490.539 442.177C490.539 442.177 491.662 445.008 490.964 446.502C490.964 446.502 490.539 442.666 490.188 442.648C490.188 442.648 488.772 445.19 488.615 446.935C488.685 445.323 489.106 443.76 489.837 442.403C489.021 442.589 488.268 443.055 487.67 443.746C487.67 443.746 487.891 441.945 490.188 441.788C490.188 441.788 491.358 439.86 491.672 439.741C491.672 439.741 489.385 439.515 488.001 440.25C488.001 440.25 489.218 438.548 492.087 439.321L493.692 437.757C493.692 437.757 490.686 437.261 489.406 437.808C489.406 437.808 490.875 436.307 494.127 437.4L495.873 436.144C495.873 436.144 493.309 435.479 491.777 435.717C491.777 435.717 493.393 434.681 496.382 435.805L497.636 435.19C497.636 435.19 495.758 434.75 495.207 434.681C494.657 434.612 494.63 434.43 494.63 434.43C495.821 434.193 497.043 434.356 498.16 434.901C498.16 434.901 500.809 433.696 500.762 433.495Z" fill="#5669FF"/>
<path opacity="0.1" d="M490.366 451.581C496.266 451.581 501.049 450.614 501.049 449.421C501.049 448.229 496.266 447.262 490.366 447.262C484.465 447.262 479.682 448.229 479.682 449.421C479.682 450.614 484.465 451.581 490.366 451.581Z" fill="#5669FF"/>
<path opacity="0.1" d="M374.522 440.061L321.91 464.425L245.01 500C242.109 493.553 237.83 484.733 232.532 474.262C214.322 438.134 184.185 381.943 157.362 332.563C127.131 276.925 101.116 229.943 101.116 229.943L119.951 223.408L273.794 170.004L374.522 440.061Z" fill="black"/>
<path d="M375.571 435.667L322.959 460.03L246.059 495.606C243.158 489.159 238.878 480.338 233.581 469.867C215.371 433.74 185.234 377.549 158.411 328.169C128.18 272.53 102.165 225.549 102.165 225.549L120.999 219.014L274.843 165.61L375.571 435.667Z" fill="white"/>
<path opacity="0.1" d="M375.571 435.667L322.96 460.03C293.575 467.356 263.59 470.657 233.582 469.867C215.371 433.74 185.234 377.549 158.412 328.169L121 219.014L274.843 165.61L375.571 435.667Z" fill="black"/>
<path d="M414.713 420.513C414.713 420.513 332.977 478.38 210.949 465.322L113.656 181.455L160.278 171.869L321.443 138.742L412.888 415.026L414.713 420.513Z" fill="#5669FF"/>
<path opacity="0.1" d="M412.889 415.026C393.64 416.156 371.38 416.049 348.974 412.854C324.732 409.452 300.375 402.408 279.448 389.514C261.972 378.735 247.029 367.027 233.996 352.972C200.109 316.486 179.134 264.294 160.3 171.869L321.465 138.742L412.889 415.026Z" fill="black"/>
<path d="M472.843 399.156C472.843 399.156 412.569 413.294 351.277 404.586C327.035 401.165 302.651 394.14 281.751 381.246C264.275 370.468 249.332 358.76 236.298 344.704C194.339 299.505 172.201 230.313 149.364 90.517C149.364 90.517 249.542 119.451 348.518 56.0717C348.518 56.0717 381.902 305.463 472.843 399.156Z" fill="white"/>
<path opacity="0.1" d="M351.276 404.586C327.034 401.165 302.651 394.14 281.75 381.246C264.274 370.468 249.331 358.76 236.298 344.704C272.01 341.233 277.145 317.861 277.145 317.861C303.621 368.157 351.276 404.586 351.276 404.586Z" fill="black"/>
<path opacity="0.3" d="M201.168 141.843C201.168 141.843 254.981 149.194 305.347 115.32L308.798 128.584C308.798 128.584 260.614 157.342 201.168 157.342V141.843Z" fill="#5669FF"/>
<path opacity="0.3" d="M201.168 207.312C201.168 207.312 254.666 202.146 314.222 167.694L316.236 173.206C316.236 173.206 294.317 206.22 201.168 214.845V207.312Z" fill="black"/>
<path opacity="0.3" d="M207.509 232.85C207.509 232.85 261.007 227.683 320.562 193.238L322.576 198.75C322.576 198.75 300.663 231.795 207.509 240.427V232.85Z" fill="black"/>
<path opacity="0.3" d="M213.31 260.377C213.31 260.377 266.807 255.21 326.363 220.765L328.377 226.277C328.377 226.277 306.433 259.303 213.31 267.954V260.377Z" fill="black"/>
<path opacity="0.3" d="M220.196 283.968C220.196 283.968 273.694 278.802 333.25 244.356L335.264 249.868C335.264 249.868 313.351 282.901 220.196 291.552V283.968Z" fill="black"/>
<path opacity="0.1" d="M226.543 309.531C226.543 309.531 280.041 304.364 339.597 269.919L341.611 275.431C341.611 275.431 319.692 308.464 226.543 317.108V309.531Z" fill="black"/>
<path opacity="0.3" d="M338.027 150.504L323.058 156.603L328.154 174.52L343.123 168.421L338.027 150.504Z" fill="#5669FF"/>
<path opacity="0.3" d="M346.544 177.159L331.574 183.259L336.67 201.176L351.64 195.076L346.544 177.159Z" fill="#5669FF"/>
<path opacity="0.3" d="M360.196 228.447L345.227 234.547L350.323 252.464L365.292 246.364L360.196 228.447Z" fill="#5669FF"/>
<path opacity="0.3" d="M368.029 255.974L353.06 262.073L358.156 279.991L373.125 273.891L368.029 255.974Z" fill="#5669FF"/>
<path opacity="0.3" d="M353.487 204.85L338.518 210.949L343.614 228.866L358.583 222.767L353.487 204.85Z" fill="#5669FF"/>
<path d="M510.014 282.223L509.453 281.595C510.9 281.244 512.264 281.087 512.264 281.087C512.264 281.087 507.297 259.58 498.921 252.404C494.777 248.857 491.326 242.95 488.887 237.884C484.442 228.724 479.448 219.96 473.945 211.663L472.434 209.384L471.784 208.392C472.691 206.747 473.803 205.184 473.677 203.276C473.675 203.263 473.675 203.25 473.677 203.238C473.682 203.138 473.682 203.037 473.677 202.937C473.662 202.701 473.627 202.467 473.572 202.24L473.515 202.347C472.806 199.886 470.084 198.8 468.065 197.444C463.345 194.261 461.325 187.305 460.318 180.839C459.532 175.817 458.881 170.168 455.598 166.935C453.5 164.857 450.647 164.172 448.533 162.107C446.53 160.148 445.412 157.179 444.154 154.448C442.056 149.897 439.286 145.66 435.631 142.941C431.975 140.223 427.333 139.175 423.321 140.995C421.784 141.698 420.389 142.791 418.868 143.55C415.092 145.434 410.765 145.183 407.025 147.173C402.42 149.621 399.425 155.032 396.687 160.167C395.271 162.823 393.047 166.709 391.783 170.619C391.783 170.481 391.783 170.35 391.783 170.211C391.177 171.935 390.846 173.779 390.808 175.648C390.783 176.443 390.855 177.238 391.023 178.008C391.589 180.519 393.278 181.907 395.282 182.873C395.398 183.672 395.552 184.462 395.743 185.24C396.65 188.812 398.263 192.07 400.445 194.737C402.627 197.405 405.314 199.403 408.279 200.564C408.452 200.639 408.63 200.689 408.803 200.752C408.949 201.249 409.159 201.715 409.427 202.133C411.1 204.644 414.457 203.929 416.639 202.102C416.728 202.033 416.812 201.945 416.896 201.869C416.911 202.225 416.942 202.579 416.99 202.93C417.038 203.232 417.074 203.558 417.127 203.828C419.094 216.515 424.129 223.364 424.129 223.364C424.129 223.364 424.595 224.205 425.356 225.599C424.957 232.598 427.627 238.977 430.711 243.904C428.052 245.744 422.319 249.347 418.774 249.046C418.774 249.046 405.745 251.061 404.235 250.05C404.025 249.912 403.826 250.1 403.637 250.527C400.049 247.91 388.579 240.364 387.598 250.05C386.712 258.839 397.165 259.963 402.142 260.007C401.917 262.58 401.791 264.639 401.791 264.639L423.195 262.888L434.34 260.923C433.108 262.875 431.718 264.614 430.36 265.462C430.36 265.462 420.284 275.224 418.543 275.311C418.296 275.311 418.218 275.606 418.254 276.077C414.016 276.077 400.836 276.812 404.492 285.6C407.812 293.567 417.158 288.055 421.386 285.01C422.382 287.327 423.232 289.141 423.232 289.141L440.503 274.42L444.243 270.653C445.51 270.58 446.762 270.291 447.961 269.793C447.961 269.85 447.998 269.906 448.014 269.957C448.147 270.418 448.247 270.893 448.313 271.375C449.362 278.588 445.837 295.412 445.837 295.412C445.837 295.412 438.085 319.073 441.809 322.299C445.533 325.526 442.779 339.142 442.779 339.142C443.429 340.451 444.177 341.686 445.014 342.834C445.408 343.379 445.846 343.877 446.32 344.321C446.147 344.886 446.003 345.462 445.89 346.048C445.321 348.948 445.536 351.991 446.503 354.736C449.063 362.169 447.505 372.941 447.505 372.941L442.481 413.57C440.068 413.13 436.952 412.766 435.793 413.57C434.015 414.769 434.597 420.814 438.725 423.413C437.472 424.562 436.021 425.361 434.477 425.755C430.805 426.759 428.225 427.399 426.526 427.789C426.415 427.789 417.714 425.491 415.48 427.01C413.245 428.529 414.321 436.954 420.677 439.019C426.898 441.034 450.096 443.991 456.778 442.786L457.203 442.698C462.883 441.355 457.895 432.421 457.266 431.335C457.224 430.971 457.187 430.588 457.145 430.174C457.056 429.245 456.977 428.178 456.92 427.035C463.256 427.732 469.507 428.071 472.376 427.556C472.513 427.556 472.639 427.506 472.754 427.475C477.784 426.282 473.378 418.385 472.812 417.431C472.787 417.188 472.761 416.93 472.733 416.658V416.589C472.733 416.407 472.696 416.213 472.681 416.024C472.665 415.836 472.681 415.704 472.639 415.535C472.597 415.365 472.639 415.233 472.602 415.076C472.581 414.767 472.56 414.447 472.539 414.116C472.539 413.984 472.539 413.846 472.539 413.708C472.539 413.457 472.513 413.206 472.502 412.948C472.502 412.81 472.502 412.672 472.502 412.528C472.502 412.151 472.502 411.762 472.471 411.373C472.471 411.266 472.471 411.159 472.471 411.052C472.471 410.739 472.471 410.425 472.471 410.098C472.471 409.948 472.471 409.797 472.471 409.64C472.471 409.307 472.471 408.975 472.471 408.636C472.471 408.523 472.471 408.416 472.471 408.303C472.471 407.882 472.502 407.449 472.523 407.016L472.555 406.551C472.555 406.231 472.597 405.924 472.623 405.597C472.623 405.44 472.623 405.283 472.665 405.126C472.707 404.687 472.754 404.247 472.806 403.802C472.806 403.67 472.843 403.538 472.859 403.406C472.906 403.074 472.953 402.735 473.006 402.396C473.006 402.232 473.058 402.063 473.09 401.893C473.153 401.529 473.221 401.165 473.294 400.801C473.294 400.701 473.331 400.6 473.352 400.5C473.446 400.06 473.551 399.627 473.661 399.194C473.698 399.043 473.74 398.893 473.782 398.742C473.871 398.416 473.966 398.114 474.065 397.775L474.191 397.374C474.333 396.947 474.485 396.526 474.642 396.118C474.684 396.011 474.731 395.905 474.779 395.798C474.91 395.471 475.051 395.17 475.198 394.831L475.376 394.461C475.576 394.059 475.78 393.657 476.006 393.274C481.775 383.431 483.296 364.447 483.155 360.317C483.013 356.186 483.842 347.617 484.875 346.349C485.567 345.501 489.595 338.816 492.003 333.731C492.438 332.802 492.816 331.929 493.115 331.151C494.825 330.441 495.957 329.895 495.957 329.895C495.355 327.26 495.065 324.536 495.097 321.803C495.139 316.461 496.367 309.424 501.433 303.711C508.912 295.274 509.956 286.912 510.056 283.698C510.056 283.472 510.056 283.271 510.056 283.102C510.04 282.512 510.014 282.223 510.014 282.223Z" fill="url(#paint0_linear)"/>
<path d="M490.083 334.873C488.053 339.214 485.775 343.382 483.264 347.347C482.278 348.603 481.486 357.084 481.623 361.158C481.759 365.232 480.317 384.015 474.804 393.745C469.292 403.475 472.124 420.293 472.124 420.293L463.329 423.984H452.76L445.48 421.379L443.561 415.039C443.561 415.039 446.12 414.568 452.477 412.76C454.24 412.33 455.838 411.222 457.026 409.605C458.214 407.988 458.928 405.95 459.059 403.802L463.523 366.494C463.523 366.494 464.839 357.077 462.668 350.561C462.056 348.727 461.802 346.75 461.926 344.781C462.05 342.812 462.547 340.903 463.381 339.199L463.523 338.935C463.523 338.935 470.409 332.425 477.427 328.351C483.642 324.76 489.946 323.053 491.735 329.424C491.966 330.247 491.21 332.362 490.083 334.873Z" fill="#A5636D"/>
<path opacity="0.05" d="M490.083 334.873C488.053 339.214 485.775 343.382 483.264 347.347C482.278 348.603 481.486 357.084 481.623 361.158C481.759 365.232 480.317 384.015 474.804 393.745C470.923 400.606 471.18 410.977 471.657 416.508C471.862 418.824 472.114 420.274 472.114 420.274L463.318 423.965H452.76L445.48 421.379L443.561 415.039C443.561 415.039 444.2 414.919 445.659 414.58C447.117 414.241 449.33 413.664 452.508 412.76C454.266 412.323 455.856 411.212 457.038 409.595C458.221 407.979 458.93 405.945 459.059 403.802L463.523 366.494C463.523 366.494 464.839 357.077 462.668 350.561C462.056 348.727 461.802 346.75 461.926 344.781C462.05 342.812 462.547 340.903 463.381 339.199L463.523 338.935C463.523 338.935 470.409 332.425 477.427 328.351C483.642 324.76 489.946 323.053 491.735 329.424C491.966 330.247 491.21 332.362 490.083 334.873Z" fill="black"/>
<path opacity="0.1" d="M472.124 420.299L463.329 423.991H452.76L445.48 421.379L443.561 415.039C443.561 415.039 444.2 414.919 445.659 414.58C445.556 415.733 445.809 416.89 446.37 417.834C446.932 418.778 447.763 419.443 448.706 419.703L452.839 419.872C453.421 419.872 454.008 419.91 454.585 419.91C460.399 419.914 466.173 418.766 471.673 416.514C471.883 418.83 472.124 420.299 472.124 420.299Z" fill="black"/>
<path d="M452.834 420.94L448.695 420.77C448.695 420.77 444.835 419.791 445.779 414.549C445.779 414.549 438.332 412.528 436.428 413.865C434.524 415.202 435.442 422.578 440.823 424.386C446.068 426.15 465.715 428.743 471.364 427.682L471.726 427.606C476.845 426.351 471.726 417.562 471.726 417.562C465.652 420.05 459.25 421.195 452.834 420.94Z" fill="#BEBED0"/>
<path d="M478.319 336.317C478.041 336.983 477.742 337.673 477.401 338.395C474.805 344.045 470.64 351.158 469.911 352.08C468.799 353.499 467.913 363.066 468.055 367.687C468.196 372.307 466.581 393.475 460.36 404.461C457.177 410.111 456.458 417.801 456.511 423.99C456.526 426.088 456.629 428.183 456.82 430.268C457.051 432.823 457.344 434.418 457.344 434.418L447.421 438.58H435.479L427.26 435.654L425.109 428.473C425.109 428.473 425.828 428.335 427.443 427.952C429.059 427.569 431.576 426.928 435.174 425.911C437.16 425.42 438.957 424.167 440.294 422.344C441.631 420.52 442.436 418.224 442.585 415.804L447.615 373.7C447.615 373.7 449.1 363.06 446.655 355.715C445.733 352.989 445.528 349.99 446.068 347.121C446.36 345.509 446.893 343.974 447.641 342.589C447.641 342.589 449.561 340.781 452.456 338.389C453.736 337.334 455.22 336.167 456.815 334.986C463.822 329.795 473.037 324.497 477.453 328.357C478.427 329.237 479.141 330.467 479.488 331.866C479.667 332.595 479.168 334.246 478.319 336.317Z" fill="#A5636D"/>
<path opacity="0.1" d="M457.318 434.424L447.395 438.586H435.479L427.26 435.661L425.109 428.479C425.109 428.479 425.828 428.341 427.443 427.958C427.34 428.809 427.413 429.677 427.657 430.486C427.9 431.295 428.306 432.02 428.838 432.597C429.665 433.438 430.711 433.909 431.797 433.928L435.557 434.072C436.213 434.072 436.874 434.116 437.529 434.116C444.092 434.114 450.61 432.816 456.82 430.274C457.051 432.829 457.318 434.424 457.318 434.424Z" fill="black"/>
<path d="M435.551 435.14L431.796 434.989C430.71 434.967 429.663 434.497 428.832 433.658C427.878 432.641 427.054 430.883 427.589 427.927C427.589 427.927 419.198 425.648 417.031 427.155C414.865 428.661 415.925 436.992 421.993 439.032C427.936 441.022 450.09 443.947 456.468 442.754L456.872 442.666C462.641 441.248 456.872 431.317 456.872 431.317C450.019 434.134 442.793 435.43 435.551 435.14Z" fill="#BEBED0"/>
<path opacity="0.1" d="M490.082 334.873C486.49 336.374 481.213 338.364 478.318 338.445C478.018 338.459 477.718 338.442 477.421 338.395C475.397 338.062 469.139 338.596 463.402 339.211C461.099 339.456 458.886 339.713 457.055 339.939C454.328 340.278 452.45 340.523 452.45 340.523V338.395C453.73 337.341 455.214 336.173 456.809 334.993C463.816 329.801 473.031 324.503 477.447 328.364C483.663 324.773 489.967 323.065 491.755 329.437C491.965 330.247 491.21 332.362 490.082 334.873Z" fill="black"/>
<path d="M507.322 285.362C507.223 288.545 506.226 296.806 499.083 305.155C489.977 315.796 493.838 331.075 493.838 331.075C493.838 331.075 482.981 336.179 478.297 336.317C477.997 336.331 477.697 336.314 477.4 336.267C474.589 335.796 463.428 337.033 457.013 337.811C454.286 338.15 452.408 338.395 452.408 338.395V293.196L502.722 278.576L507.28 284.006C507.32 284.456 507.334 284.909 507.322 285.362Z" fill="#5C5C8E"/>
<g opacity="0.1">
<path opacity="0.1" d="M453.258 337.836L452.43 337.943V338.42C452.43 338.42 454.307 338.175 457.035 337.836C461.64 337.278 468.673 336.493 473.325 336.261C470.105 335.909 459.468 337.083 453.258 337.836Z" fill="black"/>
<path opacity="0.1" d="M507.302 284.031L502.744 278.595L499.707 279.505L503.526 284.056C503.551 284.51 503.551 284.965 503.526 285.418C503.426 288.595 502.429 296.862 495.286 305.212C486.181 315.846 490.041 331.132 490.041 331.132C490.041 331.132 481.056 335.351 475.911 336.223C476.402 336.221 476.892 336.253 477.38 336.317C477.677 336.367 477.977 336.386 478.277 336.374C482.96 336.236 493.817 331.132 493.817 331.132C493.817 331.132 489.936 315.846 499.062 305.212C506.206 296.862 507.202 288.595 507.302 285.418C507.329 284.956 507.329 284.493 507.302 284.031Z" fill="black"/>
</g>
<path d="M406.778 253.434C406.778 253.434 391.568 240.803 390.451 252.178C389.334 263.553 406.778 261.928 406.778 261.928V253.434Z" fill="#A5636D"/>
<path d="M433.003 245.06C433.003 245.06 424.774 251.576 420.221 251.174C420.221 251.174 407.78 253.17 406.333 252.172C404.885 251.174 404.004 266.611 404.004 266.611L424.459 264.884L437.571 262.486C437.571 262.486 444.127 257.703 444.127 253.578C444.127 249.454 433.003 245.06 433.003 245.06Z" fill="#F7CDDD"/>
<path opacity="0.05" d="M433.003 245.06C433.003 245.06 424.774 251.576 420.221 251.174C420.221 251.174 407.78 253.17 406.333 252.172C404.885 251.174 404.004 266.611 404.004 266.611L424.459 264.884L437.571 262.486C437.571 262.486 444.127 257.703 444.127 253.578C444.127 249.454 433.003 245.06 433.003 245.06Z" fill="black"/>
<path d="M420.934 277.929C420.934 277.929 402.435 277.013 406.579 287.346C410.722 297.679 424.742 285.136 424.742 285.136L420.934 277.929Z" fill="#A5636D"/>
<path d="M439.543 255.964C439.543 255.964 424.547 242.536 426.661 226.183C428.775 209.83 439.543 238.7 439.543 238.7V255.964Z" fill="#5C5C8E"/>
<path d="M435.399 181.825C435.394 187.708 433.482 193.359 430.065 197.588C429.234 198.627 428.316 199.563 427.327 200.382C425.439 201.958 423.333 203.122 421.107 203.822C420.222 204.086 419.323 204.277 418.416 204.393C417.766 204.468 417.11 204.512 416.444 204.512C414.317 204.527 412.204 204.102 410.198 203.257C406.913 201.885 404.008 199.457 401.799 196.24C399.591 193.023 398.164 189.141 397.677 185.018C397.189 180.895 397.658 176.692 399.034 172.867C400.409 169.043 402.637 165.745 405.474 163.335C408.311 160.925 411.647 159.497 415.118 159.205C418.588 158.914 422.058 159.771 425.148 161.683C428.239 163.595 430.83 166.488 432.638 170.045C434.446 173.602 435.401 177.686 435.399 181.85V181.825Z" fill="#A5636D"/>
<path opacity="0.1" d="M507.323 285.362C505.623 285.739 503.525 286.417 503.525 287.471C503.525 289.248 479.829 298.821 479.829 298.821C479.829 298.821 480.715 301.294 478.35 305.551C475.984 309.807 456.725 334.265 456.725 334.265L456.788 334.993L457.034 337.811L458.209 351.283C458.209 351.283 450.803 348.094 448.433 348.446C447.667 348.565 446.859 347.975 446.067 347.127C446.36 345.516 446.893 343.98 447.641 342.595C447.641 342.595 449.56 340.787 452.456 338.395V293.196L502.77 278.576L507.328 284.006C507.352 284.458 507.35 284.911 507.323 285.362Z" fill="black"/>
<path d="M509.451 282.863C509.451 282.863 503.525 283.566 503.525 285.343C503.525 287.12 479.828 296.693 479.828 296.693C479.828 296.693 480.715 299.166 478.349 303.423C475.984 307.679 456.724 332.143 456.724 332.143L458.209 349.155C458.209 349.155 450.803 345.966 448.432 346.318C447.383 346.474 446.203 345.307 445.233 343.945C444.431 342.808 443.717 341.588 443.098 340.297C443.098 340.297 445.768 326.819 442.212 323.63C438.656 320.441 446.062 297.044 446.062 297.044C446.062 297.044 449.408 280.409 448.422 273.271C448.361 272.794 448.266 272.323 448.139 271.865C448.139 271.815 448.112 271.758 448.097 271.708C445.999 264.89 423.257 207.676 423.257 207.676C423.271 206.053 423.366 204.433 423.54 202.824C423.587 202.378 423.65 201.913 423.718 201.443C423.834 200.596 423.988 199.758 424.18 198.932C424.3 198.402 424.444 197.88 424.61 197.368C425.313 195.209 426.388 193.545 427.993 193.508C427.993 193.508 429.771 191.154 433.941 190.513C436.993 190.036 441.352 190.513 447.252 193.508C461.167 200.589 464.429 200.953 464.429 200.953L471.421 211.939L472.858 214.192C478.126 222.416 482.895 231.08 487.129 240.119C489.458 245.141 492.757 250.973 496.712 254.482C504.71 261.595 509.451 282.863 509.451 282.863Z" fill="#F7CDDD"/>
<path opacity="0.1" d="M457.538 241.87C457.538 241.87 477.311 247.721 484.974 262.474L457.538 241.87Z" fill="black"/>
<path opacity="0.1" d="M463.648 267.791C463.648 267.791 467.388 297.842 466.35 300.102C465.311 302.362 463.648 267.791 463.648 267.791Z" fill="black"/>
<path opacity="0.1" d="M462.311 283.215C460.874 285.469 455.036 302.889 455.036 302.889L456.72 332.143L458.204 349.155C458.204 349.155 450.803 345.966 448.433 346.318C447.384 346.474 446.198 345.307 445.233 343.945C446.77 333.982 450.059 313.134 450.651 312.732C451.433 312.199 455.435 295.45 455.645 290.761C455.854 286.071 461.414 275.619 461.414 275.619C461.414 275.619 463.758 280.961 462.311 283.215Z" fill="black"/>
<path opacity="0.1" d="M456.724 254.501C456.357 255.826 455.791 263.541 455.791 263.541C455.382 270.333 451.07 272.555 448.422 273.271C448.361 272.794 448.266 272.323 448.139 271.865C446.361 265.845 423.257 207.701 423.257 207.701C423.281 204.751 423.591 201.815 424.18 198.95C429.21 197.18 437.172 199.905 437.172 199.905C439.474 199.54 446.985 217.413 446.985 217.413C446.985 217.413 451.988 231.098 452.539 232.962C453.09 234.827 452.539 237.884 452.759 238.951C452.98 240.019 455.319 240.935 455.649 242.404C455.98 243.873 455.765 246.798 455.985 247.319C456.205 247.84 457.097 253.17 456.724 254.501Z" fill="black"/>
<path d="M454.947 253.434C454.58 254.765 454.013 262.474 454.013 262.474C453.678 268.123 450.636 270.635 448.097 271.708C446.953 272.198 445.755 272.483 444.541 272.555L440.969 276.272L424.474 290.805C424.474 290.805 418.327 277.201 419.995 277.126C421.663 277.05 431.282 267.383 431.282 267.383C434.225 265.499 437.172 259.222 438.541 255.995C438.462 255.61 438.403 255.221 438.363 254.827C437.77 248.807 425.329 225.756 425.329 225.756C425.329 225.756 420.52 218.982 418.647 206.433C418.595 206.145 418.558 205.849 418.511 205.548C418.458 205.158 418.426 204.763 418.416 204.368C418.191 199.54 421.128 197.783 424.611 197.368C426.43 197.196 428.259 197.263 430.065 197.569C431.865 197.841 433.648 198.26 435.399 198.825C436.889 198.586 440.56 206 442.968 211.254C444.263 214.105 445.197 216.327 445.197 216.327C445.197 216.327 450.2 230.018 450.751 231.876C451.302 233.735 450.751 236.804 450.971 237.865C451.192 238.926 453.531 239.855 453.861 241.324C454.192 242.793 453.977 245.719 454.197 246.24C454.417 246.761 455.319 252.103 454.947 253.434Z" fill="#F7CDDD"/>
<path opacity="0.1" d="M474.081 222.761C470.934 226.61 465.852 226.622 461.771 224.645C457.691 222.667 454.234 219.127 450.453 216.371C447.998 214.575 445.397 213.106 442.979 211.255C442.622 210.978 442.276 210.702 441.93 210.413C439.139 208.053 436.721 205.021 433.832 202.88C431.899 201.341 429.648 200.472 427.328 200.369C426.26 200.358 425.202 200.623 424.228 201.148C424.048 201.235 423.872 201.338 423.704 201.455C422.752 202.108 421.871 202.899 421.081 203.809C420.263 204.688 419.482 205.624 418.621 206.446C418.569 206.157 418.532 205.862 418.485 205.561C418.432 205.17 418.4 204.776 418.391 204.381C417.74 204.456 417.085 204.5 416.419 204.5C414.291 204.514 412.178 204.09 410.172 203.244C410.172 203.15 410.172 203.056 410.125 202.962C409.417 198.492 408.137 193.759 405.131 191.248C403.39 189.791 400.61 189.195 398.198 188.109C397.362 184.626 397.235 180.953 397.828 177.399C398.422 173.845 399.718 170.513 401.608 167.682C403.499 164.85 405.928 162.602 408.693 161.126C411.459 159.649 414.479 158.987 417.503 159.195C420.526 159.403 423.463 160.474 426.069 162.32C428.675 164.166 430.874 166.732 432.481 169.803C434.088 172.875 435.057 176.363 435.306 179.975C435.556 183.587 435.079 187.218 433.915 190.564C436.968 190.086 441.326 190.564 447.227 193.558C461.142 200.639 464.404 201.003 464.404 201.003L471.395 211.989C470.64 213.37 469.785 214.732 469.707 216.346C469.575 219.302 471.983 221.368 474.081 222.761Z" fill="black"/>
<path d="M405.151 189.107C408.157 191.618 409.436 196.345 410.15 200.809C410.37 202.202 410.58 203.671 411.293 204.776C412.867 207.249 416.098 206.553 418.18 204.776C420.262 202.999 421.904 200.306 424.227 199.051C427.311 197.381 430.941 198.599 433.831 200.765C436.72 202.93 439.138 205.963 441.929 208.298C444.63 210.577 447.64 212.202 450.452 214.255C454.233 217.011 457.69 220.571 461.77 222.529C465.851 224.488 470.949 224.482 474.075 220.646C471.977 219.252 469.569 217.193 469.732 214.205C469.894 211.217 472.8 208.988 472.606 205.925C472.412 202.861 469.401 201.662 467.241 200.156C462.73 197.017 460.805 190.112 459.84 183.74C459.09 178.755 458.471 173.187 455.361 169.985C453.352 167.926 450.64 167.255 448.616 165.214C446.702 163.275 445.637 160.343 444.42 157.637C442.411 153.136 439.773 148.949 436.285 146.256C432.797 143.563 428.36 142.489 424.531 144.335C423.063 145.032 421.725 146.112 420.278 146.846C416.669 148.729 412.541 148.46 408.97 150.424C404.569 152.848 401.711 158.196 399.094 163.275C396.88 167.625 392.49 175.296 393.733 180.946C394.971 186.69 401.889 186.383 405.151 189.107Z" fill="#4C3E42"/>
<g opacity="0.1">
<path opacity="0.1" d="M472.602 205.58C472.586 205.346 472.553 205.115 472.503 204.889C471.705 206.389 470.714 207.846 470.62 209.604C470.599 210.01 470.628 210.418 470.704 210.815C471.59 209.126 472.728 207.538 472.602 205.58Z" fill="black"/>
<path opacity="0.1" d="M462.657 217.946C458.577 215.988 455.126 212.428 451.344 209.673C448.528 207.62 445.517 205.994 442.816 203.715C440.026 201.355 437.608 198.323 434.718 196.182C431.828 194.041 428.204 192.798 425.114 194.462C422.791 195.717 421.155 198.385 419.067 200.193C416.98 202.001 413.78 202.704 412.181 200.193C411.467 199.088 411.257 197.62 411.037 196.226C410.329 191.762 409.044 187.035 406.044 184.524C402.776 181.794 395.858 182.101 394.605 176.363C394.396 175.337 394.341 174.274 394.442 173.225C393.64 175.786 393.225 178.36 393.713 180.601C394.972 186.364 401.89 186.056 405.152 188.762C408.158 191.273 409.437 196.006 410.151 200.47C410.371 201.863 410.581 203.332 411.289 204.437C412.862 206.91 416.093 206.214 418.181 204.406C420.268 202.598 421.899 199.936 424.228 198.68C427.312 197.017 430.942 198.235 433.831 200.4C436.721 202.566 439.139 205.598 441.93 207.934C444.631 210.219 447.641 211.838 450.453 213.891C454.234 216.653 457.69 220.213 461.771 222.171C465.852 224.13 470.95 224.117 474.076 220.288C473.267 219.768 472.5 219.161 471.784 218.474C468.941 219.723 465.547 219.334 462.657 217.946Z" fill="black"/>
</g>
<path d="M369.828 260.885L411.787 242.128C412.278 241.908 412.8 241.805 413.324 241.827C413.848 241.848 414.363 241.993 414.84 242.253C415.317 242.513 415.746 242.883 416.104 243.342C416.461 243.801 416.739 244.34 416.922 244.928C417.105 245.516 417.19 246.141 417.171 246.768C417.153 247.395 417.031 248.011 416.813 248.582C416.596 249.152 416.286 249.666 415.903 250.094C415.519 250.521 415.069 250.854 414.578 251.073L372.619 269.837L363.629 268.758L369.828 260.885Z" fill="#5C5C8E"/>
<path opacity="0.1" d="M415.647 243.421C416.017 244.609 415.978 245.924 415.538 247.078C415.098 248.231 414.294 249.129 413.302 249.573L371.343 268.331L364.587 267.521L363.617 268.776L372.607 269.856L414.566 251.092C415.057 250.873 415.507 250.54 415.891 250.113C416.275 249.685 416.584 249.171 416.802 248.601C417.019 248.03 417.141 247.413 417.16 246.786C417.178 246.159 417.094 245.534 416.911 244.946C416.603 243.957 416.029 243.117 415.279 242.561C415.424 242.833 415.547 243.121 415.647 243.421Z" fill="white"/>
<path d="M369.828 260.885L372.624 269.837L365.244 268.952L363.629 268.758L365.837 265.958L369.828 260.885Z" fill="#EFC8C4"/>
<path d="M365.831 265.958C366.005 266.11 366.151 266.302 366.261 266.523C366.331 266.653 366.368 266.804 366.368 266.959C366.368 267.114 366.331 267.265 366.261 267.395C366.14 267.535 366.002 267.651 365.852 267.741C365.682 267.875 365.54 268.053 365.436 268.263C365.332 268.473 365.27 268.709 365.254 268.952L363.639 268.758L365.831 265.958Z" fill="#727A9C"/>
<path d="M333.203 163.89L326.127 159.759C326.027 159.7 325.936 159.618 325.862 159.517C325.788 159.417 325.73 159.299 325.694 159.172C325.657 159.045 325.642 158.911 325.649 158.777C325.656 158.643 325.685 158.511 325.734 158.391L326.484 156.545C326.533 156.424 326.601 156.315 326.685 156.226C326.769 156.136 326.867 156.067 326.974 156.024C327.08 155.98 327.193 155.962 327.305 155.97C327.417 155.979 327.527 156.014 327.628 156.074L332.395 158.855L337.373 146.639C337.472 146.395 337.648 146.208 337.862 146.119C338.076 146.029 338.311 146.045 338.516 146.162L340.058 147.066C340.159 147.124 340.25 147.206 340.325 147.306C340.4 147.407 340.457 147.524 340.494 147.652C340.53 147.779 340.545 147.914 340.538 148.048C340.531 148.182 340.501 148.314 340.451 148.434L334.346 163.419C334.297 163.54 334.228 163.648 334.144 163.737C334.06 163.826 333.962 163.894 333.856 163.938C333.75 163.982 333.638 164 333.525 163.992C333.413 163.983 333.304 163.949 333.203 163.89Z" fill="#3ACC6C"/>
<path d="M348.66 216.729L341.585 212.598C341.484 212.539 341.393 212.457 341.319 212.356C341.245 212.256 341.188 212.138 341.151 212.011C341.114 211.884 341.099 211.75 341.106 211.616C341.113 211.481 341.142 211.35 341.191 211.229L341.941 209.384C342.042 209.139 342.219 208.953 342.434 208.864C342.65 208.776 342.885 208.794 343.09 208.913L347.852 211.694L352.824 199.465C352.924 199.221 353.1 199.034 353.314 198.945C353.528 198.856 353.763 198.871 353.968 198.988L355.504 199.892C355.606 199.95 355.697 200.032 355.772 200.133C355.846 200.233 355.904 200.35 355.941 200.477C355.978 200.604 355.994 200.739 355.987 200.873C355.981 201.008 355.952 201.139 355.903 201.261L349.798 216.245C349.696 216.488 349.519 216.674 349.304 216.762C349.089 216.85 348.854 216.834 348.649 216.716L348.66 216.729Z" fill="#3ACC6C"/>
<path d="M341.72 190.683L334.645 186.552C334.441 186.433 334.285 186.222 334.21 185.966C334.135 185.71 334.148 185.428 334.246 185.184L335.001 183.338C335.05 183.217 335.118 183.108 335.202 183.018C335.286 182.929 335.384 182.86 335.491 182.817C335.597 182.773 335.71 182.755 335.822 182.763C335.934 182.772 336.044 182.807 336.145 182.867L340.912 185.648L345.89 173.413C345.939 173.292 346.008 173.184 346.092 173.095C346.176 173.006 346.274 172.938 346.38 172.894C346.486 172.85 346.598 172.832 346.71 172.84C346.823 172.849 346.932 172.883 347.033 172.942L348.575 173.84C348.778 173.961 348.933 174.174 349.007 174.431C349.081 174.688 349.067 174.97 348.968 175.215L342.858 190.212C342.809 190.333 342.74 190.441 342.656 190.53C342.572 190.619 342.474 190.687 342.368 190.731C342.262 190.775 342.149 190.793 342.037 190.785C341.925 190.776 341.816 190.742 341.715 190.683H341.72Z" fill="#3ACC6C"/>
<path d="M355.373 240.584L348.297 236.453C348.197 236.394 348.106 236.312 348.032 236.211C347.958 236.11 347.9 235.993 347.864 235.866C347.827 235.739 347.812 235.605 347.819 235.47C347.826 235.336 347.855 235.205 347.904 235.084L348.654 233.239C348.703 233.118 348.772 233.01 348.856 232.921C348.94 232.832 349.038 232.764 349.144 232.72C349.25 232.676 349.363 232.658 349.475 232.666C349.587 232.674 349.697 232.709 349.797 232.768L354.565 235.549L359.543 223.333C359.643 223.088 359.82 222.901 360.035 222.812C360.25 222.723 360.486 222.738 360.691 222.856L362.228 223.76C362.329 223.818 362.42 223.9 362.495 224C362.57 224.101 362.627 224.218 362.664 224.345C362.7 224.473 362.715 224.607 362.708 224.742C362.701 224.876 362.671 225.007 362.621 225.128L356.521 240.113C356.42 240.356 356.243 240.542 356.028 240.63C355.813 240.718 355.578 240.701 355.373 240.584Z" fill="#3ACC6C"/>
<path d="M90.852 402.772C90.852 402.772 93.9727 407.656 89.4149 415.026C84.8571 422.396 81.0913 428.623 82.5966 433.231C82.5966 433.231 89.4779 419.54 95.0742 419.351C100.67 419.163 97.0095 411.008 90.852 402.772Z" fill="#3ACC6C"/>
<path opacity="0.1" d="M90.8515 402.772C91.1247 403.244 91.3402 403.759 91.4914 404.304C96.9514 411.988 99.8832 419.157 94.6121 419.37C89.7186 419.533 83.8496 430.005 82.4492 432.647C82.4914 432.861 82.5457 433.071 82.6118 433.275C82.6118 433.275 89.4931 419.584 95.0894 419.395C100.686 419.207 97.009 411.008 90.8515 402.772Z" fill="black"/>
<path d="M96.6531 409C96.6531 410.713 96.4905 412.139 96.2912 412.139C96.0919 412.139 95.9346 410.745 95.9346 409C95.9346 407.254 96.1339 408.089 96.3332 408.089C96.5325 408.089 96.6531 407.28 96.6531 409Z" fill="#FFD037"/>
<path d="M98.6408 411.046C97.382 411.868 96.2806 412.371 96.1862 412.157C96.0918 411.944 97.0359 411.115 98.2842 410.274C99.5324 409.433 99.0447 410.048 99.1391 410.274C99.2335 410.5 99.9048 410.224 98.6408 411.046Z" fill="#FFD037"/>
<path d="M74.3726 402.772C74.3726 402.772 71.2572 407.656 75.815 415.026C80.3728 422.396 84.1334 428.623 82.6334 433.231C82.6334 433.231 75.7573 419.54 70.1558 419.351C64.5542 419.163 68.2151 411.008 74.3726 402.772Z" fill="#3ACC6C"/>
<path opacity="0.1" d="M74.3727 402.772C74.1027 403.245 73.8891 403.761 73.7381 404.304C68.2729 411.988 65.3463 419.157 70.6174 419.37C75.5056 419.533 81.3747 430.005 82.7803 432.647C82.7363 432.861 82.6802 433.071 82.6124 433.275C82.6124 433.275 75.7364 419.527 70.1244 419.339C64.5124 419.151 68.2152 411.008 74.3727 402.772Z" fill="black"/>
<path d="M68.5771 409C68.5771 410.713 68.7345 412.139 68.9338 412.139C69.1331 412.139 69.2957 410.745 69.2957 409C69.2957 407.254 69.0964 408.089 68.8971 408.089C68.6978 408.089 68.5771 407.28 68.5771 409Z" fill="#FFD037"/>
<path d="M66.5841 411.046C67.8481 411.868 68.9443 412.371 69.0387 412.157C69.1331 411.944 68.189 411.115 66.9408 410.274C65.6925 409.433 66.175 410.048 66.0806 410.274C65.9862 410.5 65.3253 410.224 66.5841 411.046Z" fill="#FFD037"/>
<path opacity="0.1" d="M82.617 470.57C100.631 470.57 115.235 467.889 115.235 464.582C115.235 461.274 100.631 458.593 82.617 458.593C64.6026 458.593 49.999 461.274 49.999 464.582C49.999 467.889 64.6026 470.57 82.617 470.57Z" fill="#5669FF"/>
<path d="M99.4013 426.64L99.2439 428.165L99.0289 430.318L98.9345 431.216L98.7194 433.369L98.6198 434.267L98.4048 436.42L95.9082 460.903C95.6827 463.088 92.6983 464.795 89.0898 464.795H76.1297C72.5265 464.795 69.5474 463.088 69.3113 460.903L66.8148 436.42L66.5945 434.267L66.5053 433.369L66.2798 431.216L66.1906 430.318L65.9704 428.165L65.813 426.64C65.6924 425.384 67.3025 424.355 69.3428 424.355H95.8767C97.9222 424.355 99.5324 425.403 99.4013 426.64Z" fill="#65617D"/>
<path d="M99.2494 428.165L99.0291 430.318H66.2014L65.9863 428.165H99.2494Z" fill="#9D9CB5"/>
<path d="M98.9391 431.216L98.7188 433.369H66.5152L66.2949 431.216H98.9391Z" fill="#9D9CB5"/>
<path d="M98.6245 434.267L98.4043 436.42H66.8248L66.6045 434.267H98.6245Z" fill="#9D9CB5"/>
</g>
<defs>
<linearGradient id="paint0_linear" x1="449.928" y1="443.031" x2="449.928" y2="140.066" gradientUnits="userSpaceOnUse">
<stop stop-color="#808080" stop-opacity="0.25"/>
<stop offset="0.54" stop-color="#808080" stop-opacity="0.12"/>
<stop offset="1" stop-color="#808080" stop-opacity="0.1"/>
</linearGradient>
<clipPath id="clip0">
<rect width="606" height="500" fill="white"/>
</clipPath>
</defs>
</svg>
