<svg xmlns="http://www.w3.org/2000/svg" width="17.537" height="13.983" viewBox="0 0 17.537 13.983"><defs><style>.a{fill:rgba(112,112,112,0.75);}</style></defs><path class="a" d="M14.024,5.343l-.225.392a.339.339,0,0,1-.414.148,3.028,3.028,0,0,1-.88-.51.34.34,0,0,1-.077-.43l.225-.392a2.366,2.366,0,0,1-.436-.751h-.452a.338.338,0,0,1-.334-.282,3.087,3.087,0,0,1,0-1.017.341.341,0,0,1,.334-.285h.452a2.366,2.366,0,0,1,.436-.751l-.225-.392a.337.337,0,0,1,.077-.43,3.064,3.064,0,0,1,.88-.51A.339.339,0,0,1,13.8.282l.225.392a2.435,2.435,0,0,1,.869,0l.225-.392a.339.339,0,0,1,.414-.148,3.028,3.028,0,0,1,.88.51.34.34,0,0,1,.077.43l-.225.392a2.366,2.366,0,0,1,.436.751h.452a.338.338,0,0,1,.334.282,3.087,3.087,0,0,1,0,1.017.341.341,0,0,1-.334.285H16.7a2.366,2.366,0,0,1-.436.751l.225.392a.337.337,0,0,1-.077.43,3.064,3.064,0,0,1-.88.51.339.339,0,0,1-.414-.148l-.225-.392A2.435,2.435,0,0,1,14.024,5.343Zm-.288-1.611a1.024,1.024,0,0,0,1.447-1.447A1.024,1.024,0,0,0,13.736,3.732Zm-3.16,4.217.923.46a.659.659,0,0,1,.288.8,6.469,6.469,0,0,1-1.167,1.8.655.655,0,0,1-.83.145l-.8-.46a4.707,4.707,0,0,1-1.5.869v.921a.656.656,0,0,1-.54.647,6.163,6.163,0,0,1-2.08,0,.658.658,0,0,1-.548-.647v-.921a4.759,4.759,0,0,1-1.5-.869l-.8.458a.656.656,0,0,1-.83-.145,6.46,6.46,0,0,1-1.156-1.8.661.661,0,0,1,.288-.8l.913-.46a4.747,4.747,0,0,1,0-1.737L.32,5.749a.653.653,0,0,1-.288-.795,6.434,6.434,0,0,1,1.156-1.8.655.655,0,0,1,.83-.145l.8.46a4.707,4.707,0,0,1,1.5-.869V1.674a.653.653,0,0,1,.537-.644,6.25,6.25,0,0,1,2.083,0,.658.658,0,0,1,.548.647v.921a4.759,4.759,0,0,1,1.5.869L9.79,3a.656.656,0,0,1,.83.145,6.425,6.425,0,0,1,1.154,1.8.655.655,0,0,1-.274.8l-.923.46A4.762,4.762,0,0,1,10.577,7.949Zm-3.223.578a2.049,2.049,0,0,0-2.9-2.9A2.049,2.049,0,0,0,7.354,8.528Zm6.67,5.007-.225.392a.339.339,0,0,1-.414.148,3.028,3.028,0,0,1-.88-.51.34.34,0,0,1-.077-.43l.225-.392a2.366,2.366,0,0,1-.436-.751h-.452a.338.338,0,0,1-.334-.282,3.087,3.087,0,0,1,0-1.017.341.341,0,0,1,.334-.285h.452a2.366,2.366,0,0,1,.436-.751l-.225-.392a.337.337,0,0,1,.077-.43,3.064,3.064,0,0,1,.88-.51.339.339,0,0,1,.414.148l.225.392a2.435,2.435,0,0,1,.869,0l.225-.392a.339.339,0,0,1,.414-.148,3.028,3.028,0,0,1,.88.51.34.34,0,0,1,.077.43l-.225.392a2.366,2.366,0,0,1,.436.751h.452a.338.338,0,0,1,.334.282,3.087,3.087,0,0,1,0,1.017.341.341,0,0,1-.334.285H16.7a2.366,2.366,0,0,1-.436.751l.225.392a.337.337,0,0,1-.077.43,3.064,3.064,0,0,1-.88.51.339.339,0,0,1-.414-.148l-.225-.392A2.435,2.435,0,0,1,14.024,13.534Zm-.288-1.614a1.024,1.024,0,0,0,1.447-1.447A1.024,1.024,0,0,0,13.736,11.92Z" transform="translate(0.009 -0.112)"/></svg>