<?xml version="1.0" encoding="UTF-8"?> <svg xmlns="http://www.w3.org/2000/svg" width="1024" height="149.028" viewBox="0 0 1024 149.028"><path fill="#ABCAE8" d="M753.417 36.36c-2.272 0-3.6-.946-3.6-3.218v-6.248h6.06c2.085 0 3.788.757 3.788 3.408v6.06h-6.248m.567 69.678c-2.082 0-3.597-1.326-3.597-3.597V48.29h4.923c2.272 0 3.787.946 3.787 3.598v54.343h-5.113v-.19zm-348.208 1.326c-22.532 0-39.384-17.8-39.384-40.52 0-22.344 16.662-40.71 39.573-40.71 14.2 0 22.722 5.112 30.485 12.497 0 0-1.704 1.894-3.41 3.598-1.703 1.9-3.975 1.52-5.49.19-5.87-4.92-12.686-8.14-21.774-8.14-17.42 0-30.296 14.01-30.296 32.19s13.065 32.57 30.296 32.57c9.277 0 15.717-3.03 22.154-8.33 1.703-1.51 4.354-1.7 6.248.19 2.083 1.9 2.65 2.65 2.65 2.65-7.95 8.33-16.85 13.83-31.052 13.83m172.684-60.6c13.254 0 21.586 8.9 21.586 23.29v35.79H595.5c-3.407 0-3.975-1.89-3.975-4.35V71.96c0-11.172-5.68-17.42-14.96-17.42-8.708 0-16.094 6.438-16.094 17.987v33.326h-4.73c-2.08 0-3.78-.943-3.78-3.783v-30.3c0-10.794-5.68-17.23-14.95-17.23-9.28 0-16.09 7.573-16.09 18.177v29.35c0 3.028-1.13 3.596-3.6 3.596h-4.92v-57.94h4.73c2.84 0 3.98 1.703 3.98 3.976v5.68c3.79-5.68 8.9-10.99 18.75-10.99 9.47 0 15.53 5.11 18.56 11.55 3.98-5.87 10.04-11.17 20.07-11.17m68.36 60.4c-10.79 0-17.61-5.87-22.15-12.31v28.97h-4.92c-2.27 0-3.6-1.14-3.6-3.79V48.1h4.17c2.84 0 4.36 1.326 4.36 4.166v7.574c4.74-7.006 11.55-12.875 22.16-12.875 13.82 0 27.65 10.982 27.65 30.106 0 18.94-13.63 30.11-27.64 30.11m-1.7-52.64c-10.79 0-21.01 8.9-21.01 22.35 0 13.63 10.23 22.53 21.02 22.53 11.18 0 20.45-8.33 20.45-22.34 0-13.82-9.46-22.53-20.45-22.53zm156.78 69.49c-9.65 0-18.55-2.65-26.32-8.14 0 0 .57-1.13 2.08-3.6 1.52-2.46 3.41-1.89 5.87-.37 5.49 3.03 11.55 4.74 18.18 4.74 12.69 0 21.02-7 21.02-20.64V89.2c-5.11 6.626-12.11 12.116-22.72 12.116-13.82 0-27.26-10.224-27.26-27.265 0-17.04 13.44-27.45 27.26-27.45 10.8 0 17.99 5.3 22.54 11.74V51.9c0-2.464 2.27-3.98 3.98-3.98h4.73v47.9c0 18.748-11.55 28.215-29.35 28.215m-.19-69.49c-10.98 0-20.07 7.572-20.07 19.69 0 11.93 9.28 19.88 20.07 19.88 10.98 0 21.21-7.76 21.21-19.69 0-12.308-10.22-19.88-21.21-19.88zm54.72 51.5h-8.71V48.1h4.74c2.087 0 3.98 1.136 3.98 3.6v6.626c3.79-6.25 9.848-11.36 19.88-11.36 14.01 0 22.157 9.466 22.157 23.1v35.975h-5.31c-2.46 0-3.404-1.13-3.404-3.59v-30.3c0-10.79-5.87-17.42-16.1-17.42-10.033 0-17.42 7.2-17.42 18.18l.19 33.14m-146-58.7c-8.33 0-14.77 1.9-21.02 4.74 0 0 .95 2.65 1.708 4.55.76 1.9 3.03 1.52 4.17 1.14 4.357-1.7 8.9-2.84 14.39-2.84 10.79 0 17.23 5.3 17.23 15.72v14.01c0 9.28-8.52 15.72-19.31 15.72-7.766 0-14.58-4.16-14.58-11.55 0-7.38 6.06-11.55 16.85-11.55h6.43c2.65 0 3.787-1.13 3.787-3.59v-2.84h-10.98c-14.58 0-24.807 5.87-24.807 18.18 0 12.12 10.8 18.18 21.59 18.18 10.23 0 16.85-4.73 21.02-10.03v5.31c0 2.27.94 3.41 3.59 3.41h4.74V70.45c-.19-15.145-9.09-23.1-24.806-23.1m-238.38 0c-8.33 0-14.58 1.894-21.01 4.734 0 0 .944 2.65 1.7 4.544.755 1.896 3.03 1.517 4.16 1.138 4.35-1.7 8.9-2.84 14.39-2.84 10.79 0 17.23 5.307 17.23 15.72v14.01c0 9.28-8.52 15.717-19.31 15.717-7.766 0-14.58-4.166-14.58-11.55 0-7.385 6.06-11.55 16.85-11.55h6.432c2.65 0 3.79-1.136 3.79-3.598v-2.84h-10.98c-14.58 0-24.802 5.87-24.802 18.176 0 12.12 10.79 18.18 21.59 18.18 10.22 0 16.85-4.73 21.016-10.03v5.31c0 2.27.947 3.41 3.598 3.41h4.733V70.45c-.19-15.147-9.09-23.1-24.81-23.1"></path><path fill="#4174B4" d="M995.97 77.07c2.272-1.705 3.03-3.787 3.03-5.68v-.947c0-2.083-1.137-3.787-3.03-5.113C994.455 64.195 938.22 25 938.22 25v8.33c0 2.84 1.516 3.788 3.598 5.303 2.84 2.082 46.77 32.567 46.77 32.567s-44.497 30.864-47.15 32.567c-2.84 1.894-3.027 3.03-3.027 5.492v7.76c-.38.19 54.91-38.06 57.56-39.95"></path><path fill="#4174B4" d="M938.03 52.834v5.68s17.42 12.12 20.828 14.39c2.84 1.895 5.3 1.706 8.142-.378 1.894-1.325 3.598-2.46 3.598-2.46s-25.373-17.61-28.022-19.314c-2.085-1.516-4.546-.57-4.546 2.082m-799.61 54.532c-16.854 0-29.73-13.822-29.73-30.107 0-16.48 12.688-30.3 29.73-30.3 10.98 0 17.797 4.54 23.1 10.22 0 0-1.705 1.89-3.22 3.4-1.704 1.7-3.408 1.51-5.68-.38-3.976-3.22-8.33-5.69-14.39-5.69-11.74 0-20.64 10.03-20.64 22.53 0 12.68 9.28 22.53 21.207 22.53 6.06 0 10.983-2.47 14.958-6.06.947-.76 3.41-2.09 5.302-.19s2.84 2.65 2.84 2.65c-5.68 6.63-12.496 11.36-23.478 11.36m81.41-71c-2.27 0-3.6-.95-3.6-3.22v-6.24h6.06c2.08 0 3.78 1.32 3.78 3.97v5.49h-6.25m.38 69.68c-2.09 0-3.6-1.33-3.6-3.6V48.29h4.92c2.27 0 3.78.946 3.78 3.598v54.343h-5.11v-.19zm64-54.91c.94-2.27 2.65-3.03 4.73-3.03h5.87s-23.1 53.02-24.05 55.1c-.95 2.08-2.27 2.84-4.36 2.84h-1.14c-2.27 0-3.6-.38-4.55-2.65-.95-2.08-24.05-55.48-24.05-55.48h6.06c2.27 0 3.98.95 4.92 3.22.76 2.28 18.18 44.5 18.18 44.5l18.36-44.5m61.16 29.54c6.81 0 8.9-4.35 8.52-9.47-1.33-14.01-11.55-24.42-26.51-24.42-16.09 0-27.83 13.44-27.83 30.29 0 17.99 13.06 30.3 28.97 30.3 10.98 0 17.99-4.36 23.86-10.8 0 0-1.33-1.14-2.84-2.46-1.89-1.52-3.79-1.14-4.92 0-4.17 3.79-9.28 5.87-15.91 5.87-10.23 0-19.13-7.01-20.45-19.69 0 0-.19-1.33-.19-3.03 0-1.9.19-3.22.19-3.22 1.14-11.36 8.71-19.69 18.74-19.69 10.41 0 17.23 7.19 17.99 16.66.38 2.08-.38 3.03-1.89 3.03H319.8c-2.27 0-3.6 1.32-3.6 3.59v3.22c11.93-.19 26.7-.19 29.16-.19M70.44 29.54c-1.136-2.27-2.273-2.84-4.545-2.84H63.62c-1.705 0-3.22.946-4.166 2.65C58.704 31.06 25 106.04 25 106.04h5.492c2.46 0 3.976-1.136 5.3-3.597 1.137-2.463 7.765-17.04 7.765-17.04h26.13c2.84 0 4.543-1.706 4.543-4.167V77.45H46.964l17.988-40.332s28.024 63.62 29.16 66.082c1.136 2.46 3.786 2.84 5.87 2.84h4.922S71.58 32.006 70.444 29.544m112.85 60.022c0 7.006 3.977 9.658 9.657 9.658 2.09 0 3.6-.38 5.69-.947 1.9-.567 4.17-.19 4.17 2.65 0 2.084-.19 3.786-.19 3.786-3.03 1.517-7.76 2.463-11.74 2.463-9.27 0-16.28-4.545-16.28-16.284v-63.81h4.17c2.46 0 4.36 1.325 4.36 3.977v17.22h13.83c2.09 0 4.55 1.13 4.55 3.97v3.6h-18.37l.19 33.7"></path></svg> 