<?xml version="1.0" encoding="UTF-8"?> <svg xmlns="http://www.w3.org/2000/svg" width="1126.79" height="225.38" viewBox="0 0 1126.79 225.38"><title>aweber-logo</title><path d="M578.33,222.85l-49-135-.66-.08L477.76,222.27l-.54.06Q436.84,121.2,396.39,19.86h30.78q24.93,64,49.88,128l.62,0,51.9-136.79,49.65,136.69.61.14,53-128.13h30.78Z" fill="#007ec3"></path><path d="M58.53,225.31c-2.61,0-5.31.17-8,0a54.86,54.86,0,0,1-18-4.27A53.16,53.16,0,0,1,4.44,193.19,55,55,0,0,1,0,170.38C.07,131.12-.06,91.85.1,52.59c.06-16,6.67-29.15,18.65-39.65A52.44,52.44,0,0,1,45.37.7,30.14,30.14,0,0,1,55.08.23c.49.82,0,1.48-.25,2.1A271.73,271.73,0,0,0,42.75,46.07a280.92,280.92,0,0,0-4.06,29.61c-.58,7.15-1,14.32-1.17,21.51-.09,5.67-.49,11.35-.21,17,.39,7.73.46,15.47,1.15,23.2C39.13,145,39.86,152.48,41,160a280.25,280.25,0,0,0,17.15,63.3A2.41,2.41,0,0,1,58.53,225.31Z" fill="#007ec3"></path><path d="M1075.66,211.12h-27.1V91h27.09c.52,3.34-.39,6.92.29,10.67,17.62-20.06,36.77-15.56,50.85-7.19-4.12,8.22-8.24,16.46-12.43,24.84a46.08,46.08,0,0,0-7.54-3.88c-11.41-4.1-23.94-.25-28.45,13.67a53.35,53.35,0,0,0-2.54,15.3c-.46,20.31-.12,40.63-.24,61C1075.57,207.25,1076,209.15,1075.66,211.12Z" fill="#007ec3"></path><path d="M225.24,53.24a43.7,43.7,0,0,0-.5-7.15C222.81,34.53,218,24.41,209.67,16,199.34,5.67,186.86.3,172.35.17,147.88,0,123.4.11,98.92.11a3.27,3.27,0,0,0-2.35.46,224.61,224.61,0,0,0-10,26.82,256.14,256.14,0,0,0-8,35.18,251.8,251.8,0,0,0-3.08,32.15c-.4,16.21-.28,32.42,1.72,48.58a302.4,302.4,0,0,0,5.18,30.4,242.76,242.76,0,0,0,14.17,42.84,62.5,62.5,0,0,0,4.23,8.8h2.31q34.2,0,68.4,0a49.05,49.05,0,0,0,8.34-.64,52.92,52.92,0,0,0,21.43-8.39c15.44-10.63,23.74-25.41,23.9-44C225.49,132.6,225.27,92.92,225.24,53.24ZM137.46,209.12c-5.51,5.38-12,4.63-16.16-1.22-7.64-10.77-14.66-21.89-19.94-34a136.54,136.54,0,0,1-9.55-32.5,198.29,198.29,0,0,1-2.38-27.17c.15-16.09,1.73-30.83,6-45.15a145.59,145.59,0,0,1,18.07-38.46c2.76-4.21,5.6-8.36,8.63-12.38,2.39-3.17,5.51-4.91,9.51-4,4.16.92,7.23,3.35,8.41,7.62.65,2.35-.36,4.39-1.71,6.25a217.87,217.87,0,0,0-13,19.57,124.41,124.41,0,0,0-14.91,41.94,142,142,0,0,0-1.8,22.16,148.43,148.43,0,0,0,2.06,26.43,126.51,126.51,0,0,0,7.51,26.14,144.93,144.93,0,0,0,16,28.77,60.46,60.46,0,0,1,4.69,6.88A7.29,7.29,0,0,1,137.46,209.12ZM151.94,124c2,17,9.05,31.93,19.11,45.57a9.75,9.75,0,0,1,1.6,2.91,5.22,5.22,0,0,1-.54,4.37,7,7,0,0,1-11.89.76c-8.88-12.13-16-25.14-19.54-39.91a114,114,0,0,1-2.78-19.37,103.47,103.47,0,0,1-.06-13.64,98.11,98.11,0,0,1,11.9-43.42,155.16,155.16,0,0,1,10.38-16.08c3.82-5.28,9.56-3.34,12.08.19a4.68,4.68,0,0,1,0,5.78c-1.84,2.8-3.83,5.49-5.7,8.28a87.29,87.29,0,0,0-14.19,35.69A108.15,108.15,0,0,0,151.94,124Z" fill="#007ec3"></path><path d="M340.54,8.28c-31.57,67.81-63,135.23-94.42,202.84h30.51Q287.3,187.86,298,164.63h82.57l20.14,46.47h31ZM309.88,137.73l29.77-65.16.72-.11c9.53,21.64,18.91,43.34,28.5,65.27Z" fill="#007ec3"></path><path d="M897.72,139.13a61.72,61.72,0,0,0-7.71-23,62.58,62.58,0,0,0-15.6-17.87A49.9,49.9,0,0,0,855.21,89a54.47,54.47,0,0,0-19.48-1.11,47.73,47.73,0,0,0-17,5.4,62.05,62.05,0,0,0-13.7,10.32c-.38.37-.69.94-1.7.44V2.15H776.31V211h26.93c.44-4.09-.31-8.12.42-12.15a4.87,4.87,0,0,1,2.25,1.58c12.35,11.32,26.86,16,43.44,13.81a50,50,0,0,0,24.73-10.11,60.65,60.65,0,0,0,21.72-32.45A80,80,0,0,0,897.72,139.13Zm-31.55,32.26c-5.3,10.35-13.54,17-25.31,18.67a35.16,35.16,0,0,1-5,0c-18,.39-29.06-12.88-32.2-25.2-2.62-10.24-2.74-20.4,1-30.36,4.63-12.34,13.31-19.87,26.53-22.07a33,33,0,0,1,18.52,2,31.18,31.18,0,0,1,13,11A43.23,43.23,0,0,1,870.38,148C871,156.19,869.92,164.07,866.17,171.39Z" fill="#007ec3"></path><path d="M732.46,167.15a2,2,0,0,0-.89.91c-3.69,5.61-7.46,11.2-12.57,15.64-8.07,7-17.68,7.77-27.54,5.61-11-2.41-17.87-9.74-21.58-20.13a32.6,32.6,0,0,1-2.06-12h86c.24-.45.37-.58.37-.72.07-1.84.15-3.68.17-5.52.1-11.45-1.46-22.61-6.33-33.09a50.07,50.07,0,0,0-23.56-24.59,57.51,57.51,0,0,0-20.66-5.52,68.07,68.07,0,0,0-22.34,1.37c-13.81,3.34-24.54,11.18-32.28,23.13-7.17,11.07-9.69,23.46-10.26,36.38A81.81,81.81,0,0,0,640.29,166c2.73,15.88,10.06,29,23.27,38.48,7.84,5.66,16.75,8.57,26.21,9.69a76.37,76.37,0,0,0,15.05.24c9.41-.74,18.23-3.09,26.28-8.05,8.66-5.34,15.3-12.74,20.9-21.14a35.74,35.74,0,0,0,3.29-5.37ZM670,132.88c4.63-14.56,16.73-22.23,31.62-20.69,13.58,1.41,20.43,8.67,24.37,21.32a8.8,8.8,0,0,1,.14,1.3H670A2.24,2.24,0,0,1,670,132.88Z" fill="#007ec3"></path><path d="M1005.69,167.09a118.93,118.93,0,0,1-7.07,9.9c-2.87,3.44-5.72,6.89-9.62,9.27-5.54,3.39-11.64,4.15-18,3.94a29.6,29.6,0,0,1-14.74-4.31c-7.51-4.61-11.73-11.55-13.89-19.89a27.51,27.51,0,0,1-1.27-8.75h86.53c.08-.95.16-1.57.17-2.19a111.27,111.27,0,0,0-.95-18.15c-2.07-14-7.22-26.34-18-36.07A49.41,49.41,0,0,0,985.81,89a69.23,69.23,0,0,0-29.23-.16c-14.87,3.14-26.21,11.25-34.3,24a64,64,0,0,0-9.19,27,89,89,0,0,0,.48,26A61.24,61.24,0,0,0,925,192.91a52.67,52.67,0,0,0,26.34,18.67,67.51,67.51,0,0,0,26.22,2.87,63.66,63.66,0,0,0,19.54-4.26c12.63-5.2,21.55-14.6,28.85-25.78.93-1.43,2.15-2.75,2.67-4.62Zm-31.79-55c13.67.92,22.94,9.3,25.4,22.68H943.15C945.17,123.11,956.11,110.87,973.9,112.07Z" fill="#007ec3"></path></svg> 