<svg xmlns="http://www.w3.org/2000/svg" width="24" height="24" viewBox="0 0 24 24"><g><g><path fill="#fff" d="M3.98 11.993a7.966 7.966 0 0 1 3.136-6.361.469.469 0 1 1 .572.743 7.036 7.036 0 0 0-2.771 5.618.469.469 0 0 1-.938 0zm5.579-6.677a.469.469 0 0 1-.151-.913 8.003 8.003 0 0 1 2.589-.428.469.469 0 0 1 0 .938c-.783 0-1.553.127-2.287.377a.473.473 0 0 1-.151.026zm-6.564 6.677c0 4.964 4.038 9.002 9.002 9.002s9.002-4.038 9.002-9.002-4.038-9.002-9.002-9.002-9.002 4.038-9.002 9.002zm9.002-9.94c5.48 0 9.94 4.46 9.94 9.94 0 5.481-4.46 9.94-9.94 9.94-5.481 0-9.94-4.459-9.94-9.94 0-5.48 4.459-9.94 9.94-9.94zM9.176 22.696a.469.469 0 1 1-.239.907c-.706-.186-1.4-.438-2.06-.75a.469.469 0 1 1 .4-.849c.61.288 1.248.52 1.899.692zm-6.427-4.624a.469.469 0 0 1-.783.516c-.402-.61-.75-1.26-1.033-1.933a.47.47 0 0 1 .864-.365c.261.62.582 1.22.952 1.782zm2.787 2.906a.469.469 0 0 1-.548.76 12.102 12.102 0 0 1-1.655-1.437.469.469 0 1 1 .677-.65c.467.487.98.933 1.526 1.327zm15.394-.967a12.096 12.096 0 0 1-1.607 1.49.467.467 0 0 1-.657-.084.469.469 0 0 1 .085-.658 11.176 11.176 0 0 0 1.481-1.375.469.469 0 1 1 .698.627zM.828 14.923a.469.469 0 0 1-.558-.358A12.04 12.04 0 0 1 0 12.39a.469.469 0 1 1 .938-.03c.022.675.105 1.35.248 2.005a.469.469 0 0 1-.358.558zm16.848 7.123a.469.469 0 0 1-.203.63c-.65.335-1.334.61-2.034.82a.47.47 0 0 1-.269-.899 11.022 11.022 0 0 0 1.875-.754.469.469 0 0 1 .631.203zm-3.97 1.365a.47.47 0 0 1-.416.516 12.212 12.212 0 0 1-2.19.036.469.469 0 0 1 .069-.935c.669.05 1.355.038 2.021-.033a.47.47 0 0 1 .516.416zM23.974 11.2a12.203 12.203 0 0 1-.172 2.975.47.47 0 0 1-.922-.17 11.172 11.172 0 0 0 .158-2.744.47.47 0 0 1 .936-.061zm-1.035 4.48a.47.47 0 0 1 .27.606 12.013 12.013 0 0 1-.969 1.967.469.469 0 1 1-.8-.49c.353-.574.653-1.184.894-1.812a.469.469 0 0 1 .605-.27zM8.325 1.526a.469.469 0 0 1-.15-.914A11.96 11.96 0 0 1 10.31.108a.469.469 0 0 1 .131.928c-.667.094-1.329.25-1.966.464a.47.47 0 0 1-.15.025zM22.049 7.36a.47.47 0 0 1 .852-.393c.306.663.552 1.359.732 2.067a.469.469 0 0 1-.91.23 10.997 10.997 0 0 0-.674-1.904zM12.46.937A.469.469 0 1 1 12.499 0c.732.03 1.463.127 2.172.289a.47.47 0 0 1-.207.914A11.11 11.11 0 0 0 12.46.937zm3.924.894a.469.469 0 0 1 .372-.86c.67.289 1.317.642 1.925 1.05a.47.47 0 0 1-.523.778 11.077 11.077 0 0 0-1.774-.968zM1.728 6.714a.47.47 0 0 1-.176-.64c.36-.634.781-1.24 1.252-1.799a.469.469 0 1 1 .718.603 11.132 11.132 0 0 0-1.155 1.66.469.469 0 0 1-.639.176zm17.998-2.64a.469.469 0 1 1 .655-.67c.523.51 1.001 1.07 1.423 1.666a.469.469 0 0 1-.766.542c-.389-.55-.83-1.067-1.312-1.538zM4.297 3.392a.47.47 0 0 1 .063-.66 12.072 12.072 0 0 1 1.81-1.236.47.47 0 1 1 .456.82c-.587.327-1.149.71-1.669 1.14a.469.469 0 0 1-.66-.064zm-4.17 6.81C.234 9.48.41 8.763.648 8.073a.469.469 0 1 1 .886.306c-.22.636-.381 1.296-.481 1.962a.469.469 0 1 1-.928-.139z"/></g></g></svg>