<svg xmlns="http://www.w3.org/2000/svg" width="44" height="52" viewBox="0 0 44 52"><g><g><path fill="#2a83ee" d="M29.598 39.33h-3.866a2 2 0 1 0 0 4h3.866a2 2 0 1 0 0-4zm3.866-7.866h-7.732a2 2 0 1 0 0 4h7.732a2 2 0 1 0 0-4zm-7.732-3.866h3.866a2 2 0 1 0 0-4h-3.866a2 2 0 1 0 0 4zm7.732-11.866h-7.732a2 2 0 1 0 0 4h7.732a2 2 0 1 0 0-4zM13.8 39.33a1.935 1.935 0 0 1-1.933-1.933c0-1.066.867-1.933 1.933-1.933s1.933.867 1.933 1.933a1.935 1.935 0 0 1-1.933 1.933zm0-7.866a5.94 5.94 0 0 0-5.933 5.933A5.94 5.94 0 0 0 13.8 43.33a5.94 5.94 0 0 0 5.933-5.933 5.94 5.94 0 0 0-5.933-5.933zm0-7.866a1.935 1.935 0 0 1-1.933-1.933c0-1.066.867-1.933 1.933-1.933s1.933.867 1.933 1.933a1.935 1.935 0 0 1-1.933 1.933zm0-7.866a5.94 5.94 0 0 0-5.933 5.933 5.94 5.94 0 0 0 5.933 5.933 5.94 5.94 0 0 0 5.933-5.933 5.94 5.94 0 0 0-5.933-5.933zm25.532 29.565c0 1.047-.853 1.9-1.9 1.9H5.9c-1.048 0-1.9-.853-1.9-1.9V5.9C4 4.852 4.852 4 5.9 4h5.9v1.866c0 3.308 2.69 6 5.999 6h7.732c3.309 0 6-2.692 6-6V4h5.9c1.047 0 1.9.852 1.9 1.9v39.397zM15.799 4H27.53v1.866c0 1.103-.897 2-2 2H17.8c-1.103 0-2-.897-2-2zM37.43 0H5.9A5.906 5.906 0 0 0 0 5.9v39.397c0 3.252 2.647 5.9 5.9 5.9h31.53c3.253 0 5.9-2.648 5.9-5.9V5.9c0-3.253-2.646-5.9-5.9-5.9z"/></g></g></svg>