<svg xmlns="http://www.w3.org/2000/svg" width="24" height="25" viewBox="0 0 24 25"><g><g><path fill="#fff" d="M17.1 11.336a2.653 2.653 0 0 1-3.748 0 2.653 2.653 0 0 1 0-3.747 2.642 2.642 0 0 1 1.873-.775c.679 0 1.357.258 1.874.775a2.653 2.653 0 0 1 0 3.747zm-4.314.566a3.437 3.437 0 0 0 2.44 1.008 3.44 3.44 0 0 0 2.439-1.008 3.453 3.453 0 0 0 0-4.879 3.453 3.453 0 0 0-4.879 0 3.453 3.453 0 0 0 0 4.879zM22.9 4.692a18.252 18.252 0 0 1-.13.629l-.006.025a18.362 18.362 0 0 1-.991 3.088l-5.497-5.496c3.2-1.355 5.968-1.458 6.921-1.445.01.552-.017 1.709-.297 3.198zM11.906 18.374l-.03.015-.246.117-.08.038a26.85 26.85 0 0 1-.202.093l-.116.053-.174.078c-.048.02-.095.042-.142.063l-.153.065c-.107.046-.215.092-.324.137l-.141.058-.169.068-.154.062-.042.016-1.364-1.364 3.244-2.047a.401.401 0 0 0 .173-.236.4.4 0 0 0 .013-.103v-2.4a.4.4 0 0 0-.4-.4H8.904a.399.399 0 0 0-.156.032l-.024.012-.023.011a.401.401 0 0 0-.148.153l-.047.084-1.727 3.105-1.33-1.33.019-.047.033-.084.089-.22.03-.075.095-.228.029-.067.098-.23.03-.067.098-.222.036-.08a28.643 28.643 0 0 1 .287-.613l.05-.104.102-.205.012-.024c2.494-4.968 5.913-7.7 9.038-9.2l5.925 5.925c-1.436 2.98-4.2 6.577-9.514 9.161zm-2.256 3.95l.774-1.032a.4.4 0 0 0 .072-.319l-.204-1.018.011-.004c.154-.06.305-.123.456-.185l.088-.037c.15-.062.299-.126.446-.19l.003-.002c.157-.069.312-.139.466-.21l.053-.024a26.68 26.68 0 0 0 1.32-.657l.198-.107a23.92 23.92 0 0 0 .773-.437l.162 2.414zm-3.046-4.281l.557-1.001a.4.4 0 0 0 .074-.095l1.905-3.46h2.06v1.775zm-.112 2.25a1.895 1.895 0 0 1-1.055 1.265l-4.231 1.923 1.923-4.232a1.894 1.894 0 0 1 1.71-1.111c.248 0 .49.052.71.155l-.377.678-.01.018c0 .003-.003.007-.004.01l-.006.014-.007.018-.002.007a.457.457 0 0 0-.008.025v.002a.4.4 0 0 0 .086.364.414.414 0 0 0 .018.02c.002 0 .003.002.005.004a.4.4 0 0 0 .475.06l.673-.38c.164.352.202.76.1 1.16zm-1.13-7.374c-.139.301-.275.61-.407.926l-.033.079c-.063.151-.125.304-.186.46l-.005.01-1.018-.204a.403.403 0 0 0-.318.073l-1.032.773L4.17 10.42l2.415.16a24.874 24.874 0 0 0-.439.777l-.103.191a25.746 25.746 0 0 0-.68 1.372zM23.981 1.08v-.007a.4.4 0 0 0-.41-.368c-.458-.03-4.022-.197-8.18 1.718a.395.395 0 0 0-.126.092c-2.768 1.3-5.762 3.52-8.202 7.296l-3.132-.208a.393.393 0 0 0-.4.253l-2.425 6.2a.4.4 0 0 0 .612.465l2.014-1.51 1.054.21 1.589 1.59-.436.783a2.525 2.525 0 0 0-1.741-.174 2.69 2.69 0 0 0-1.797 1.5L.036 24.122a.4.4 0 0 0 .53.53l5.202-2.365a2.69 2.69 0 0 0 1.5-1.797 2.52 2.52 0 0 0-.2-1.793l.743-.45 1.655 1.656.21 1.053-1.51 2.013a.4.4 0 0 0 .467.614l6.2-2.426a.4.4 0 0 0 .253-.4l-.21-3.133c3.776-2.44 5.996-5.433 7.297-8.2a.398.398 0 0 0 .092-.126c1.988-4.315 1.734-7.99 1.716-8.218z"/></g></g></svg>