<svg xmlns="http://www.w3.org/2000/svg" width="27" height="16" viewBox="0 0 27 16"><g><g><path fill="#fff" d="M12.147 12.27c-.761 0-1.38-.619-1.38-1.38 0-.762.619-1.381 1.38-1.381.762 0 1.381.62 1.381 1.38 0 .762-.62 1.382-1.38 1.382zm0-3.607a2.229 2.229 0 0 0-2.226 2.227 2.23 2.23 0 0 0 2.226 2.226 2.23 2.23 0 0 0 2.227-2.226 2.229 2.229 0 0 0-2.227-2.227zM6.736 4.097c.761 0 1.38.62 1.38 1.381 0 .762-.619 1.381-1.38 1.381-.762 0-1.381-.619-1.381-1.38 0-.762.62-1.382 1.38-1.382zm0 3.608a2.229 2.229 0 0 0 2.226-2.227 2.23 2.23 0 0 0-2.226-2.226 2.23 2.23 0 0 0-2.227 2.226c0 1.228 1 2.227 2.227 2.227zm7.063-3.878a.423.423 0 0 0-.598 0l-8.117 8.117a.423.423 0 1 0 .598.598l8.117-8.117a.423.423 0 0 0 0-.598zm5.563 6.19a.423.423 0 0 0-.423.422v.902a.423.423 0 0 0 .846 0v-.902a.423.423 0 0 0-.423-.423zm0-2.707a.423.423 0 0 0-.423.423v.902a.423.423 0 0 0 .846 0v-.902a.423.423 0 0 0-.423-.423zm0-2.705a.423.423 0 0 0-.423.423v.901a.423.423 0 0 0 .846 0v-.901a.423.423 0 0 0-.423-.423zm6.793 10.343a.028.028 0 0 1-.029.028h-5.44v-.028c0-.582-.377-1.078-.901-1.255v-.549a.423.423 0 0 0-.846 0v.55a1.327 1.327 0 0 0-.901 1.254v.028H.874a.028.028 0 0 1-.028-.028V1.42c0-.016.012-.028.028-.028h17.164v.028c0 .583.378 1.078.901 1.255v.549a.423.423 0 0 0 .846 0v-.549c.524-.177.902-.672.902-1.255v-.028h5.44c.015 0 .027.012.027.028zM26.125.546h-5.862a.423.423 0 0 0-.423.423v.451a.48.48 0 0 1-.958 0V.97a.423.423 0 0 0-.423-.424H.874A.875.875 0 0 0 0 1.42v13.528c0 .482.392.874.874.874H18.46c.234 0 .423-.19.423-.423v-.45a.48.48 0 0 1 .958 0v.45c0 .234.19.423.423.423h5.862a.875.875 0 0 0 .874-.874V1.42a.875.875 0 0 0-.874-.874z"/></g></g></svg>