<svg xmlns="http://www.w3.org/2000/svg" width="27" height="25" viewBox="0 0 27 25"><g><g><path fill="#2a83ee" d="M25.957 17.068H.807V1.801c0-.075.061-.136.136-.136h24.88c.073 0 .134.061.134.136zm-13.225 1.708a.65.65 0 1 1 1.302-.001.65.65 0 0 1-1.302 0zM25.822.858H.943A.945.945 0 0 0 0 1.8v18.325c0 .307.25.556.556.556h9.852c-.048 1.092-.29 3.286-1.426 3.768 0 0-.44.408.792.408h7.127c1.233 0 .792-.408.792-.408-1.134-.482-1.376-2.676-1.426-3.768h9.953a.545.545 0 0 0 .543-.556v-2.402c0-.01.003-.017.003-.026V1.801a.945.945 0 0 0-.944-.943z"/></g></g></svg>