<?xml version="1.0"?>
<svg xmlns="http://www.w3.org/2000/svg" xmlns:xlink="http://www.w3.org/1999/xlink" version="1.1" id="Capa_1" x="0px" y="0px" viewBox="0 0 480 480" style="enable-background:new 0 0 480 480;" xml:space="preserve" width="512px" height="512px"><g transform="matrix(0.989604 0 0 0.989604 2.49502 2.49502)"><g>
	<g>
		<path d="M472,256h-80v-24h-16v24h-80c-4.416,0-8,3.584-8,8v208c0,4.416,3.584,8,8,8h128c1.048,0,2.08-0.208,3.048-0.608    c0.968-0.4,1.856-0.984,2.608-1.736l48-48c0.688-0.688,1.176-1.496,1.568-2.344c0.112-0.248,0.184-0.496,0.272-0.752    c0.232-0.672,0.368-1.352,0.408-2.056c0.008-0.176,0.096-0.328,0.096-0.504V264C480,259.584,476.416,256,472,256z M432,452.688    V432h20.688L432,452.688z M464,416h-40c-4.416,0-8,3.584-8,8v40H304V272h160V416z" data-original="#000000" class="active-path" data-old_color="#000000" fill="#2B3748"/>
	</g>
</g><g>
	<g>
		<path d="M216,120V96h-16v24h-48v-16h-16v16H88V88H72v32H24v-16H8v16c-4.416,0-8,3.584-8,8v32c0,4.416,3.584,8,8,8h8v40    c0,2.288,0.976,4.464,2.68,5.984L88,275.6V344c0,2.776,1.44,5.344,3.792,6.808C93.08,351.6,94.536,352,96,352    c1.224,0,2.448-0.28,3.576-0.84l32-16c2.712-1.36,4.424-4.128,4.424-7.16v-52.408l69.32-61.616c1.704-1.512,2.68-3.688,2.68-5.976    v-40h8c4.416,0,8-3.584,8-8v-32C224,123.584,220.416,120,216,120z M208,152h-8c-4.416,0-8,3.584-8,8v44.408l-69.32,61.616    c-1.704,1.512-2.68,3.688-2.68,5.976v51.056l-16,8V272c0-2.288-0.976-4.464-2.68-5.984L32,204.408V160c0-4.416-3.584-8-8-8h-8v-16    h192V152z" data-original="#000000" class="active-path" data-old_color="#000000" fill="#2B3748"/>
	</g>
</g><g>
	<g>
		<rect x="104" y="88" width="16" height="16" data-original="#000000" class="active-path" data-old_color="#000000" fill="#2B3748"/>
	</g>
</g><g>
	<g>
		<rect x="104" y="32" width="16" height="40" data-original="#000000" class="active-path" data-old_color="#000000" fill="#2B3748"/>
	</g>
</g><g>
	<g>
		<rect x="104" width="16" height="16" data-original="#000000" class="active-path" data-old_color="#000000" fill="#2B3748"/>
	</g>
</g><g>
	<g>
		<rect x="136" y="72" width="16" height="16" data-original="#000000" class="active-path" data-old_color="#000000" fill="#2B3748"/>
	</g>
</g><g>
	<g>
		<rect x="136" width="16" height="56" data-original="#000000" class="active-path" data-old_color="#000000" fill="#2B3748"/>
	</g>
</g><g>
	<g>
		<rect x="8" y="72" width="16" height="16" data-original="#000000" class="active-path" data-old_color="#000000" fill="#2B3748"/>
	</g>
</g><g>
	<g>
		<rect x="8" width="16" height="24" data-original="#000000" class="active-path" data-old_color="#000000" fill="#2B3748"/>
	</g>
</g><g>
	<g>
		<rect x="168" y="64" width="16" height="40" data-original="#000000" class="active-path" data-old_color="#000000" fill="#2B3748"/>
	</g>
</g><g>
	<g>
		<rect x="168" y="32" width="16" height="16" data-original="#000000" class="active-path" data-old_color="#000000" fill="#2B3748"/>
	</g>
</g><g>
	<g>
		<rect x="168" width="16" height="16" data-original="#000000" class="active-path" data-old_color="#000000" fill="#2B3748"/>
	</g>
</g><g>
	<g>
		<rect x="40" width="16" height="24" data-original="#000000" class="active-path" data-old_color="#000000" fill="#2B3748"/>
	</g>
</g><g>
	<g>
		<rect x="40" y="40" width="16" height="16" data-original="#000000" class="active-path" data-old_color="#000000" fill="#2B3748"/>
	</g>
</g><g>
	<g>
		<rect x="40" y="72" width="16" height="32" data-original="#000000" class="active-path" data-old_color="#000000" fill="#2B3748"/>
	</g>
</g><g>
	<g>
		<rect x="72" width="16" height="40" data-original="#000000" class="active-path" data-old_color="#000000" fill="#2B3748"/>
	</g>
</g><g>
	<g>
		<rect x="72" y="56" width="16" height="16" data-original="#000000" class="active-path" data-old_color="#000000" fill="#2B3748"/>
	</g>
</g><g>
	<g>
		<rect x="8" y="40" width="16" height="16" data-original="#000000" class="active-path" data-old_color="#000000" fill="#2B3748"/>
	</g>
</g><g>
	<g>
		<rect x="200" width="16" height="80" data-original="#000000" class="active-path" data-old_color="#000000" fill="#2B3748"/>
	</g>
</g><g>
	<g>
		<path d="M152,184v-16h-11.04l2.888-14.432l-15.688-3.144L124.64,168h-15.688l2.888-14.432l-15.688-3.144L92.64,168H80v16h9.44    l-3.2,16H72v16h11.04l-2.88,14.432l15.688,3.144L99.36,216h15.688l-2.888,14.432l15.688,3.144L131.36,216H144v-16h-9.44l3.2-16    H152z M118.248,200H102.56l3.2-16h15.688L118.248,200z" data-original="#000000" class="active-path" data-old_color="#000000" fill="#2B3748"/>
	</g>
</g><g>
	<g>
		<path d="M316,72c-41.904,0-76,34.096-76,76v256c0,33.088-26.912,60-60,60s-60-26.912-60-60v-12h-16v12c0,41.904,34.096,76,76,76    s76-34.096,76-76V148c0-33.088,26.912-60,60-60s60,26.912,60,60v4h16v-4C392,106.096,357.904,72,316,72z" data-original="#000000" class="active-path" data-old_color="#000000" fill="#2B3748"/>
	</g>
</g><g>
	<g>
		<rect x="104" y="360" width="16" height="16" data-original="#000000" class="active-path" data-old_color="#000000" fill="#2B3748"/>
	</g>
</g><g>
	<g>
		<rect x="376" y="168" width="16" height="16" data-original="#000000" class="active-path" data-old_color="#000000" fill="#2B3748"/>
	</g>
</g><g>
	<g>
		<rect x="376" y="200" width="16" height="16" data-original="#000000" class="active-path" data-old_color="#000000" fill="#2B3748"/>
	</g>
</g><g>
	<g>
		<rect x="328" y="296" width="112" height="16" data-original="#000000" class="active-path" data-old_color="#000000" fill="#2B3748"/>
	</g>
</g><g>
	<g>
		<rect x="328" y="328" width="112" height="16" data-original="#000000" class="active-path" data-old_color="#000000" fill="#2B3748"/>
	</g>
</g><g>
	<g>
		<rect x="328" y="360" width="112" height="16" data-original="#000000" class="active-path" data-old_color="#000000" fill="#2B3748"/>
	</g>
</g><g>
	<g>
		<rect x="328" y="392" width="72" height="16" data-original="#000000" class="active-path" data-old_color="#000000" fill="#2B3748"/>
	</g>
</g><g>
	<g>
		<rect x="328" y="424" width="72" height="16" data-original="#000000" class="active-path" data-old_color="#000000" fill="#2B3748"/>
	</g>
</g></g> </svg>
