<?xml version="1.0"?>
<svg xmlns="http://www.w3.org/2000/svg" xmlns:xlink="http://www.w3.org/1999/xlink"  version="1.1" width="512" height="512" x="0" y="0" viewBox="0 0 512.021 512.021" style="enable-background:new 0 0 512 512" xml:space="preserve" class=""><g><g xmlns="http://www.w3.org/2000/svg"><path d="m61.01 210v90h10.845l139.155 83.493v128.528l90-45v-83.528l139.155-83.493h10.845c0-10.812 0-81.255 0-90zm240 60v30h80.845l-110.845 66.507v81.972l-30 15v-96.972l-110.845-66.507h80.845v-30h-120v-30h330v30z" fill="#727272" data-original="#000000" style="" class=""/><path d="m211.01 45c0-24.813-20.187-45-45-45s-45 20.187-45 45 20.187 45 45 45 45-20.187 45-45zm-45 15c-8.271 0-15-6.729-15-15s6.729-15 15-15 15 6.729 15 15-6.729 15-15 15z" fill="#727272" data-original="#000000" style="" class=""/><path d="m241.01 165c0-41.355-33.645-75-75-75s-75 33.645-75 75v15h150zm-117.429-15c6.191-17.461 22.874-30 42.43-30s36.239 12.539 42.43 30z" fill="#727272" data-original="#000000" style="" class=""/><path d="m391.01 45c0-24.813-20.187-45-45-45s-45 20.187-45 45 20.187 45 45 45 45-20.187 45-45zm-45 15c-8.271 0-15-6.729-15-15s6.729-15 15-15 15 6.729 15 15-6.728 15-15 15z" fill="#727272" data-original="#000000" style="" class=""/><path d="m421.01 165c0-41.355-33.645-75-75-75s-75 33.645-75 75v15h150zm-117.429-15c6.19-17.461 22.873-30 42.43-30s36.239 12.539 42.43 30z" fill="#727272" data-original="#000000" style="" class=""/></g></g></svg>
