<svg xmlns="http://www.w3.org/2000/svg" width="51" height="62" viewBox="0 0 51 62"><g><g><path fill="#2a83ee" d="M28.325 36.634v-2.031H47.04v2.031zM26.59 6.125l6.686 6.609-3.423.016a3.254 3.254 0 0 1-3.247-3.232zm-3.61-2.52l.028 5.93c.019 3.756 3.09 6.812 6.845 6.813l5.965-.028.082 15.612h-9.375c-.992 0-1.8.807-1.8 1.799v7.964c0 .526.23 1.024.629 1.366l4.913 4.21-23.244.084a3.254 3.254 0 0 1-3.247-3.231l-.179-37.18A3.246 3.246 0 0 1 6.83 3.683zm15.972 44.193c-.4.342-.629.84-.629 1.366v7.529l-1.283.64v-8.172a1.8 1.8 0 0 0-.629-1.363l-8.088-6.93v-1.563H47.04v1.562zm9.888-15.866H39.5l-.091-17.455a1.786 1.786 0 0 0-.535-1.271L26.063.545a1.807 1.807 0 0 0-1.096-.512l-.264-.025A1.744 1.744 0 0 0 24.538 0L6.812.085A6.854 6.854 0 0 0 0 6.964L.18 44.138a6.848 6.848 0 0 0 2.026 4.83 6.76 6.76 0 0 0 4.803 1.985l26.435-.095v9.386c0 .628.319 1.2.852 1.53a1.794 1.794 0 0 0 1.751.079l4.881-2.439c.614-.306.995-.923.995-1.609v-7.813l8.087-6.93a1.8 1.8 0 0 0 .631-1.367V33.73c0-.992-.807-1.8-1.799-1.8z"/></g></g></svg>