<svg xmlns="http://www.w3.org/2000/svg" width="49" height="52" viewBox="0 0 49 52"><g><g><path fill="#2a83ee" d="M42.566 40.03h-4.852v4.852a2.84 2.84 0 0 1-2.837 2.837 2.84 2.84 0 0 1-2.837-2.837V40.03H27.19a2.84 2.84 0 0 1-2.837-2.837 2.84 2.84 0 0 1 2.837-2.838h4.851v-4.85a2.84 2.84 0 0 1 2.837-2.838 2.84 2.84 0 0 1 2.838 2.837v4.851h4.851a2.84 2.84 0 0 1 2.838 2.838 2.84 2.84 0 0 1-2.838 2.837zm-38.19 6.74V4.487h21.328v6.032a2.645 2.645 0 0 0 2.644 2.645h6.032v10.144a6.305 6.305 0 0 0-5.781 6.276v1.39h-1.392a6.305 6.305 0 0 0-6.297 6.298 6.305 6.305 0 0 0 6.297 6.298H28.6v1.391c0 .63.094 1.237.266 1.81zm38.209-15.796h-1.391v-1.391a6.29 6.29 0 0 0-2.438-4.971v-14.41a2.05 2.05 0 0 0-.602-1.452L30.006.6a2.055 2.055 0 0 0-1.451-.6H4.029A4.034 4.034 0 0 0 0 4.03v43.198a4.034 4.034 0 0 0 4.03 4.03h30.866a6.305 6.305 0 0 0 6.298-6.298V43.57h1.39a6.305 6.305 0 0 0 6.298-6.298 6.305 6.305 0 0 0-6.297-6.297z"/></g></g></svg>