<svg xmlns="http://www.w3.org/2000/svg" width="26" height="27" viewBox="0 0 26 27"><g><g><path fill="#fff" d="M12.547 13.09l-.25-2.004a1.895 1.895 0 0 1 .405-1.418 1.736 1.736 0 0 1 1.2-.644 3.09 3.09 0 0 1 2.105.607zm-.805 5.318a1.717 1.717 0 0 1-1.2.644 3.103 3.103 0 0 1-2.103-.607l3.458-3.458.25 2.003a1.885 1.885 0 0 1-.405 1.418zm5.847-9.113a.442.442 0 0 0 0-.623.439.439 0 0 0-.622 0l-.33.329a3.95 3.95 0 0 0-2.808-.854c-.71.06-1.353.402-1.81.966a2.78 2.78 0 0 0-.595 2.083l.336 2.683-3.943 3.942a3.086 3.086 0 0 1 .287-4.026.441.441 0 0 0-.624-.621 3.967 3.967 0 0 0-.293 5.278l-.503.503a.439.439 0 0 0 .311.751.444.444 0 0 0 .313-.129l.503-.504a3.95 3.95 0 0 0 2.806.857 2.6 2.6 0 0 0 1.811-.966c.47-.581.687-1.34.595-2.083l-.336-2.683 3.944-3.942a3.088 3.088 0 0 1-.288 4.025.441.441 0 0 0 .624.622 3.967 3.967 0 0 0 .293-5.278zm1.491-2.39a.436.436 0 0 0 .622 0l.878-.878c.082.172.133.362.133.566a1.323 1.323 0 0 1-2.645 0c0-.73.595-1.321 1.322-1.321.204 0 .394.05.568.131l-.878.878a.441.441 0 0 0 0 .624zm4.278 5.801L11.05 25.346a.675.675 0 0 1-.953 0l-9.02-9.02a.665.665 0 0 1-.195-.476c0-.178.068-.349.197-.477L13.722 2.627h9.012l-2.13 2.13a2.173 2.173 0 0 0-1.214-.367 2.206 2.206 0 0 0-2.204 2.203 2.205 2.205 0 1 0 4.041-1.214l2.13-2.13zM25.87.112a.439.439 0 0 0-.622 0l-1.635 1.633h-10.26L.456 14.75A1.543 1.543 0 0 0 0 15.85c0 .414.161.806.456 1.099l9.018 9.018c.304.303.7.454 1.098.454.4 0 .8-.15 1.106-.459l12.56-12.897V2.369L25.87.736a.442.442 0 0 0 0-.624z"/></g></g></svg>