<svg height="512" viewBox="0 0 60 60" width="512" xmlns="http://www.w3.org/2000/svg"><g id="031---Sale"><path fill="#fff"   id="Shape" d="m24 56c-.5522847 0-1-.4477153-1-1s.4477153-1 1-1 1 .4477153 1 1-.4477153 1-1 1z"/><path fill="#fff"  id="Shape" d="m48 56c-.5522847 0-1-.4477153-1-1s.4477153-1 1-1 1 .4477153 1 1-.4477153 1-1 1z"/><path fill="#fff"  id="Shape" d="m27 30h18c.5522847 0 1-.4477153 1-1s-.4477153-1-1-1h-18c-.5522847 0-1 .4477153-1 1s.4477153 1 1 1z"/><path fill="#fff"  id="Shape" d="m49 28c-.5522847 0-1 .4477153-1 1s.4477153 1 1 1h5c.5522847 0 1-.4477153 1-1s-.4477153-1-1-1z"/><path fill="#fff"  id="Shape" d="m38 34c.5522847 0 1-.4477153 1-1s-.4477153-1-1-1h-12c-.5522847 0-1 .4477153-1 1s.4477153 1 1 1z"/><path fill="#fff"  id="Shape" d="m52 32h-9c-.5522847 0-1 .4477153-1 1s.4477153 1 1 1h9c.5522847 0 1-.4477153 1-1s-.4477153-1-1-1z"/><path fill="#fff"  id="Shape" d="m36 37c0-.5522847-.4477153-1-1-1h-8c-.5522847 0-1 .4477153-1 1s.4477153 1 1 1h8c.5522847 0 1-.4477153 1-1z"/><path fill="#fff"  id="Shape" d="m51 36h-11c-.5522847 0-1 .4477153-1 1s.4477153 1 1 1h11c.5522847 0 1-.4477153 1-1s-.4477153-1-1-1z"/><path fill="#fff"  id="Shape" d="m40 40h-11c-.5522847 0-1 .4477153-1 1s.4477153 1 1 1h11c.5522847 0 1-.4477153 1-1s-.4477153-1-1-1z"/><path fill="#fff"  id="Shape" d="m50 40h-6c-.5522847 0-1 .4477153-1 1s.4477153 1 1 1h6c.5522847 0 1-.4477153 1-1s-.4477153-1-1-1z"/><path fill="#fff"  id="Shape" d="m34.5 13.5h-9c-.8284271 0-1.5.6715729-1.5 1.5v8h-2.75c-.614102-.0144025-1.2007607.2541943-1.5911203.7284812-.3903596.474287-.5411168 1.1016504-.4088797 1.7015188l4.58 21c.2054096.9342904 1.043656 1.5923138 2 1.57h28.49c.9843595.0143118 1.8327452-.6898483 2-1.66l3.67-21c.10088-.5846119-.0629843-1.1838396-.447315-1.6357663-.3843308-.4519266-.9494602-.7099075-1.542685-.7042337h-6v-10.5h.89c.5718383-.0018034 1.0929043-.328583 1.3435293-.8425766.250625-.5139937.1872028-1.1257716-.1635293-1.5774234l-6.95-9.58c-.2924039-.30564078-.697015-.47850572-1.12-.47850572s-.8275961.17286494-1.12.47850572c-.09.11-.17.23-6.88 9.5-.3854621.4438289-.4783106 1.0710192-.2379712 1.6074911s.7701752.8846996 1.3579712.8925089h.88v10.5h-4v-8c0-.8284271-.6715729-1.5-1.5-1.5zm-8.5 2h8v7.5h-8zm32 9.5-3.67 21h-28.5l-4.58-21zm-17.5-14.5h-.4l5.9-8.14 5.91 8.14h-.41c-.8284271 0-1.5.6715729-1.5 1.5v11h-8v-11c0-.8284271-.6715729-1.5-1.5-1.5z"/><path fill="#fff"  id="Shape" d="m5 60c.55228475 0 1-.4477153 1-1s-.44771525-1-1-1h-4c-.55228475 0-1 .4477153-1 1s.44771525 1 1 1z"/><path fill="#fff"  id="Shape" d="m59 58h-7c1.3711749-1.7649849 1.3711749-4.2350151 0-6h1c.5522847 0 1-.4477153 1-1s-.4477153-1-1-1h-31.17l-4.38-22.76c-.3642639-1.8822579-2.0128195-3.2413724-3.93-3.24h-1.52v-.5c0-.8284271-.6715729-1.5-1.5-1.5h-7.5c-1.65685421 0-2.99999991 1.3431458-2.99999991 3s1.3431457 3 2.99999991 3h7.5c.8284271 0 1.5-.6715729 1.5-1.5v-.5h1.52c.9717285-.0176728 1.8155018.6657836 2 1.62l4.37 22.76c.0837417.4155481.2973512.793742.61 1.08-1.7730243 1.7508532-1.9862592 4.5399661-.5 6.54h-11c-.55228475 0-1 .4477153-1 1s.44771525 1 1 1h50c.5522847 0 1-.4477153 1-1s-.4477153-1-1-1zm-57-33c0-.5522847.44771525-1 1-1h2v2h-2c-.55228475 0-1-.4477153-1-1zm8 1h-3v-2h3zm41 29c0 1.6568542-1.3431458 3-3 3s-3-1.3431458-3-3 1.3431458-3 3-3 3 1.3431458 3 3zm-7 3h-16c1.3711749-1.7649849 1.3711749-4.2350151 0-6h16c-1.3711749 1.7649849-1.3711749 4.2350151 0 6zm-23-3c0-1.6568542 1.3431458-3 3-3s3 1.3431458 3 3-1.3431458 3-3 3-3-1.3431458-3-3z"/></g></svg>