<svg width="80" height="68" viewBox="0 0 80 68" fill="none" xmlns="http://www.w3.org/2000/svg">
<rect x="0.5" y="0.5" width="39" height="67" rx="1.5" fill="white" stroke="#C4C4C4"/>
<rect x="3.25861" y="4.44202" width="34.1724" height="8.85507" rx="0.5" stroke="#C4C4C4"/>
<rect x="3.25861" y="17.2536" width="34.1724" height="8.85507" rx="0.5" stroke="#C4C4C4"/>
<rect x="3.25861" y="30.0652" width="34.1724" height="8.85507" rx="0.5" stroke="#C4C4C4"/>
<rect x="3.25861" y="42.8768" width="34.1724" height="8.85507" rx="0.5" stroke="#C4C4C4"/>
<rect x="3.25861" y="55.6884" width="34.1724" height="8.85507" rx="0.5" stroke="#C4C4C4"/>
<rect x="42.5" y="0.5" width="37" height="67" rx="1.5" fill="white" stroke="#C4C4C4"/>
<rect x="45.1207" y="4.44205" width="32.4138" height="8.85507" rx="0.5" stroke="#C4C4C4"/>
<rect x="45.1207" y="17.2536" width="32.4138" height="8.85507" rx="0.5" stroke="#C4C4C4"/>
<rect x="45.1207" y="30.0652" width="32.4138" height="8.85507" rx="0.5" stroke="#C4C4C4"/>
<rect x="45.1207" y="42.8768" width="32.4138" height="8.85507" rx="0.5" stroke="#C4C4C4"/>
<rect x="45.1207" y="55.6884" width="32.4138" height="8.85507" rx="0.5" stroke="#C4C4C4"/>
</svg>
